<svg xmlns="http://www.w3.org/2000/svg" xmlns:xlink="http://www.w3.org/1999/xlink" width="1920" zoomAndPan="magnify" viewBox="0 0 1440 809.999993" height="1080" preserveAspectRatio="xMidYMid meet" version="1.0"><defs><clipPath id="fca86a5cf6"><path d="M 580.273438 243 L 726 243 L 726 564 L 580.273438 564 Z M 580.273438 243 " clip-rule="nonzero"/></clipPath><clipPath id="4cb37a549e"><path d="M 580.273438 243 L 720 243 L 720 563 L 580.273438 563 Z M 580.273438 243 " clip-rule="nonzero"/></clipPath></defs><path fill="#f7b2b2" d="M 851.667969 407.710938 C 849.886719 414.367188 846.570312 419.382812 841.941406 422.988281 L 833.429688 410.445312 L 837.785156 404.503906 L 840.171875 403.496094 L 842.5 402.582031 Z M 851.667969 407.710938 " fill-opacity="1" fill-rule="nonzero"/><path fill="#f1f3f2" d="M 832.316406 324.84375 C 843.582031 325.539062 853.039062 337.222656 854.378906 348.207031 C 854.378906 348.207031 860.09375 376.03125 858.800781 388.082031 C 858.226562 393.417969 852.183594 407.097656 852.183594 407.097656 C 850.824219 410.003906 842.191406 406.261719 842.5 402.582031 C 843.640625 391.199219 843.949219 380.339844 843.074219 370.234375 Z M 832.316406 324.84375 " fill-opacity="1" fill-rule="nonzero"/><path fill="#fc6c85" d="M 780.855469 544.46875 C 775.902344 547.265625 770.632812 548.390625 764.890625 547.050781 C 763.839844 546.804688 762.757812 546.609375 761.679688 546.585938 C 755.667969 546.460938 754.035156 549.003906 755.480469 553.421875 C 757.644531 558.75 762.886719 561.304688 770.835938 561.390625 C 772.839844 561.414062 774.855469 561.261719 776.816406 560.859375 C 781.625 559.863281 787.410156 560.003906 793.566406 560.574219 C 796.972656 560.886719 799.914062 558.203125 799.914062 554.785156 L 799.914062 545.476562 Z M 780.855469 544.46875 " fill-opacity="1" fill-rule="nonzero"/><path fill="#f95070" d="M 799.914062 554.796875 C 799.898438 558.230469 796.945312 560.878906 793.527344 560.578125 C 787.394531 560.003906 781.609375 559.871094 776.816406 560.863281 C 774.859375 561.269531 772.839844 561.417969 770.835938 561.390625 C 762.882812 561.300781 757.640625 558.757812 755.484375 553.429688 C 754.625 550.808594 754.851562 548.839844 756.433594 547.710938 C 756.507812 548.3125 756.660156 548.957031 756.886719 549.667969 C 759.054688 554.992188 764.300781 557.535156 772.253906 557.628906 C 774.257812 557.65625 776.261719 557.507812 778.234375 557.101562 C 783.027344 556.105469 788.796875 556.242188 794.941406 556.816406 C 796.914062 556.996094 798.738281 556.183594 799.914062 554.796875 Z M 799.914062 554.796875 " fill-opacity="1" fill-rule="nonzero"/><path fill="#fc6c85" d="M 839.691406 517.90625 L 839.691406 531.582031 C 839.691406 533.472656 838.429688 535.15625 836.601562 535.648438 C 831.445312 537.035156 827.414062 535.144531 824.117188 531.105469 C 823.226562 530.015625 822.019531 529.207031 820.65625 528.863281 C 814.347656 527.261719 809.96875 523.894531 808.417969 518.558594 C 807.914062 516.824219 807.792969 514.96875 808.320312 513.246094 C 810.101562 507.4375 816.3125 510.0625 822.429688 515.84375 Z M 839.691406 517.90625 " fill-opacity="1" fill-rule="nonzero"/><path fill="#f95070" d="M 839.371094 533.1875 C 838.902344 534.347656 837.941406 535.277344 836.675781 535.625 C 831.476562 537.054688 827.425781 535.160156 824.113281 531.101562 C 823.230469 530.019531 822.039062 529.21875 820.6875 528.875 C 814.285156 527.253906 809.859375 523.820312 808.367188 518.363281 C 807.898438 516.691406 807.808594 514.902344 808.320312 513.246094 C 808.847656 511.53125 809.75 510.539062 810.941406 510.175781 C 810.835938 510.402344 810.746094 510.660156 810.671875 510.929688 C 810.160156 512.585938 810.25 514.375 810.699219 516.046875 C 812.207031 521.496094 816.625 524.925781 823 526.535156 C 824.367188 526.882812 825.570312 527.691406 826.460938 528.78125 C 829.777344 532.84375 833.828125 534.738281 839.023438 533.308594 C 839.144531 533.277344 839.265625 533.234375 839.371094 533.1875 Z M 839.371094 533.1875 " fill-opacity="1" fill-rule="nonzero"/><path fill="#285294" d="M 842.042969 420.605469 L 841.765625 471.210938 L 839.691406 517.90625 C 838.664062 526.507812 821.398438 524.445312 822.429688 515.84375 C 821.671875 493.453125 819.316406 482.570312 815.164062 462.25 L 818.371094 420.605469 L 826.113281 414.214844 Z M 842.042969 420.605469 " fill-opacity="1" fill-rule="nonzero"/><path fill="#263966" d="M 842.039062 420.605469 L 841.765625 471.214844 L 839.6875 517.914062 C 839.207031 521.902344 835.226562 523.601562 831.207031 523.40625 C 830.769531 522.742188 830.40625 522.035156 830.164062 521.269531 C 829.667969 519.671875 829.742188 517.957031 829.820312 516.285156 C 830.089844 511.035156 830.347656 505.78125 830.617188 500.515625 C 830.875 495.261719 831.128906 489.996094 832.15625 484.835938 C 832.667969 482.230469 833.375 479.582031 832.9375 476.964844 C 832.472656 474.269531 830.8125 471.546875 831.777344 468.988281 C 832.078125 468.191406 832.621094 467.511719 832.90625 466.714844 C 833.253906 465.722656 833.195312 464.621094 833.164062 463.570312 C 833.027344 458.347656 833.75 453.09375 835.332031 448.113281 C 835.695312 446.941406 836.117188 445.765625 836.28125 444.546875 C 836.476562 442.953125 836.222656 441.328125 835.949219 439.730469 C 834.882812 433.425781 833.585938 426.953125 834.851562 420.679688 C 835.03125 419.792969 835.273438 418.902344 835.589844 418.015625 Z M 842.039062 420.605469 " fill-opacity="1" fill-rule="nonzero"/><path fill="#285294" d="M 786.328125 423.746094 C 786.328125 423.746094 782.175781 465.992188 781.511719 480.121094 C 780.59375 499.644531 780.835938 543.730469 780.835938 543.730469 C 780.445312 552.621094 799.632812 553.460938 800.023438 544.570312 L 806.386719 495.957031 C 806.855469 492.355469 807.59375 488.789062 808.589844 485.292969 L 824.035156 431.15625 L 804.625 420.605469 Z M 786.328125 423.746094 " fill-opacity="1" fill-rule="nonzero"/><path fill="#263966" d="M 825.347656 426.621094 L 808.59375 485.300781 C 807.597656 488.792969 806.859375 492.359375 806.390625 495.957031 L 800.019531 544.566406 C 799.898438 547.515625 797.699219 549.394531 794.835938 550.253906 C 792.265625 547.695312 791.945312 543.726562 791.761719 540.09375 C 791.613281 536.800781 791.449219 533.488281 791.296875 530.175781 C 791.175781 527.800781 791.070312 525.390625 791.597656 523.074219 C 792.019531 521.238281 792.847656 519.507812 793.449219 517.714844 C 796.269531 509.394531 794.519531 499.839844 798.378906 491.9375 C 799.023438 490.613281 799.824219 489.347656 800.15625 487.917969 C 800.683594 485.675781 800.019531 483.34375 800.035156 481.042969 C 800.050781 478.84375 800.699219 476.664062 801.886719 474.8125 C 802.625 473.667969 803.558594 472.644531 804.042969 471.394531 C 804.839844 469.363281 804.34375 467.089844 804.328125 464.910156 C 804.296875 459.898438 806.84375 455.246094 809.644531 451.078125 C 811.273438 448.671875 813.035156 446.292969 813.957031 443.523438 C 815.039062 440.226562 814.84375 436.539062 816.378906 433.425781 C 817.210938 431.738281 818.714844 430.207031 820.464844 429.210938 Z M 825.347656 426.621094 " fill-opacity="1" fill-rule="nonzero"/><path fill="#f7b2b2" d="M 774.550781 335.453125 L 776.8125 333.820312 C 777.988281 332.972656 778.785156 331.691406 779.007812 330.261719 C 779.839844 324.902344 782.707031 311.65625 790.617188 313.074219 C 800.507812 314.851562 797.339844 321.023438 797.339844 321.023438 C 797.339844 321.023438 794.1875 332.054688 787.035156 335.453125 L 785.664062 342.101562 L 776.867188 339.953125 Z M 774.550781 335.453125 " fill-opacity="1" fill-rule="nonzero"/><path fill="#f1f3f2" d="M 844.265625 421.195312 C 845.417969 435.828125 786.851562 438.761719 785.699219 424.128906 L 786.90625 399.28125 C 787.238281 392.457031 786.820312 385.613281 785.671875 378.878906 L 784.523438 372.203125 C 784.253906 370.628906 784.039062 369.039062 783.878906 367.449219 C 783.777344 366.4375 782.664062 365.863281 781.777344 366.363281 L 759.082031 379.113281 C 755.160156 381.316406 750.199219 380.195312 747.605469 376.527344 C 746.527344 375.007812 746 373.238281 746 371.472656 C 746 369.433594 746.707031 367.40625 748.105469 365.773438 L 774.527344 334.851562 C 775.9375 332.566406 779.445312 333.582031 783.085938 335.601562 C 783.769531 335.980469 784.601562 335.980469 785.289062 335.605469 C 803.828125 325.578125 820.816406 320.976562 836.230469 325.878906 C 837.710938 326.351562 839.085938 327.136719 840.222656 328.203125 C 850.386719 337.75 848.550781 357.449219 842.496094 379.613281 C 841.421875 383.566406 841.097656 387.6875 841.476562 391.773438 Z M 844.265625 421.195312 " fill-opacity="1" fill-rule="nonzero"/><path fill="#f7b2b2" d="M 822.457031 317.117188 L 822.457031 325.460938 C 823.117188 331.324219 803.128906 333.5625 802.46875 327.699219 L 802.089844 319.558594 C 802.089844 319.558594 804.09375 314.539062 804.171875 314.230469 C 804.246094 313.921875 820.9375 312.070312 820.9375 312.070312 Z M 822.457031 317.117188 " fill-opacity="1" fill-rule="nonzero"/><path fill="#f7b2b2" d="M 795.136719 285.5 C 791.8125 293.808594 790.753906 303.742188 791.601562 314.972656 C 791.753906 316.949219 793.121094 318.660156 795.042969 319.152344 C 800.199219 320.46875 805.859375 319.980469 811.171875 317.410156 C 811.171875 317.410156 818 300.144531 818 299.21875 C 818 298.292969 806.0625 286.949219 805.308594 286.371094 C 804.554688 285.789062 795.136719 285.5 795.136719 285.5 Z M 795.136719 285.5 " fill-opacity="1" fill-rule="nonzero"/><path fill="#eaa7a7" d="M 811.902344 315.5625 C 811.445312 316.699219 811.816406 317.460938 811.816406 317.460938 C 806.503906 320.027344 800.199219 320.46875 795.046875 319.15625 C 793.117188 318.664062 791.753906 316.949219 791.605469 314.976562 C 790.753906 303.742188 791.808594 293.804688 795.136719 285.5 C 795.136719 285.5 795.535156 285.507812 796.175781 285.535156 C 793.554688 293.324219 792.765625 302.429688 793.535156 312.578125 C 793.683594 314.5625 795.046875 316.265625 796.964844 316.753906 C 801.738281 317.976562 806.941406 317.652344 811.902344 315.5625 Z M 811.902344 315.5625 " fill-opacity="1" fill-rule="nonzero"/><path fill="#353437" d="M 826.308594 279.191406 C 825.171875 275.195312 821.824219 273.589844 816.851562 273.742188 C 813.820312 273.835938 810.828125 274.582031 808.101562 275.90625 C 803.761719 278.007812 799.53125 278.484375 795.433594 276.925781 C 794.527344 276.582031 793.542969 277.140625 793.40625 278.101562 C 792.660156 283.296875 794.605469 286.511719 799.226562 287.75 C 800.152344 288 800.6875 288.949219 800.460938 289.882812 C 799.511719 293.757812 799.472656 297.894531 800.816406 302.417969 C 801.195312 303.6875 802.394531 304.542969 803.726562 304.542969 C 804.574219 304.542969 805.40625 304.210938 805.960938 303.566406 C 807.335938 301.960938 808.765625 301.960938 810.234375 303.269531 C 811.773438 305.027344 811.605469 310.066406 811.292969 315.378906 C 811.164062 317.570312 813.027344 319.359375 815.21875 319.144531 L 818.253906 318.847656 C 820.632812 318.613281 822.78125 317.316406 824.09375 315.316406 L 832.253906 302.921875 C 832.738281 302.183594 833.089844 301.359375 833.253906 300.492188 C 834.714844 292.628906 833.632812 286.484375 828.914062 282.800781 C 827.714844 281.867188 826.726562 280.652344 826.308594 279.191406 Z M 826.308594 279.191406 " fill-opacity="1" fill-rule="nonzero"/><path fill="#29282b" d="M 833.25 300.488281 C 833.09375 301.363281 832.738281 302.183594 832.257812 302.917969 L 824.097656 315.324219 C 823.207031 316.65625 821.964844 317.675781 820.515625 318.277344 L 827.890625 307.054688 C 828.386719 306.324219 828.738281 305.503906 828.894531 304.628906 C 830.359375 296.765625 829.273438 290.625 824.554688 286.941406 C 823.351562 286.003906 822.371094 284.789062 821.953125 283.324219 C 820.816406 279.328125 817.46875 277.722656 812.5 277.878906 C 809.464844 277.96875 806.472656 278.714844 803.738281 280.046875 C 800.207031 281.757812 796.757812 282.382812 793.371094 281.71875 C 793.199219 280.648438 793.214844 279.433594 793.410156 278.101562 C 793.539062 277.148438 794.535156 276.585938 795.4375 276.925781 C 799.527344 278.480469 803.765625 278.007812 808.105469 275.90625 C 810.824219 274.585938 813.820312 273.828125 816.851562 273.738281 C 821.820312 273.59375 825.167969 275.1875 826.308594 279.183594 C 826.726562 280.648438 827.71875 281.863281 828.910156 282.800781 C 833.628906 286.484375 834.714844 292.625 833.25 300.488281 Z M 833.25 300.488281 " fill-opacity="1" fill-rule="nonzero"/><path fill="#d4d6d8" d="M 787.96875 334.210938 C 779.773438 343.128906 767.480469 353.4375 753.988281 364.132812 L 783.199219 335.660156 C 783.628906 335.867188 784.085938 335.921875 784.542969 335.855469 C 784.804688 335.828125 785.054688 335.738281 785.289062 335.609375 C 786.191406 335.125 787.082031 334.652344 787.96875 334.210938 Z M 787.96875 334.210938 " fill-opacity="1" fill-rule="nonzero"/><path fill="#d4d6d8" d="M 785.699219 424.128906 L 786.90625 399.28125 C 787.238281 392.457031 786.820312 385.613281 785.671875 378.878906 L 784.523438 372.203125 C 784.253906 370.628906 784.039062 369.042969 783.882812 367.453125 C 783.78125 366.433594 782.667969 365.867188 781.777344 366.359375 L 759.082031 379.113281 C 755.160156 381.316406 750.199219 380.195312 747.605469 376.527344 C 746.527344 375.007812 746 373.238281 746 371.472656 C 746 369.433594 746.707031 367.40625 748.105469 365.773438 L 774.527344 334.851562 C 775.242188 333.695312 776.492188 333.378906 778.03125 333.621094 C 778.605469 334.796875 779.042969 336.113281 778.359375 336.214844 C 775.382812 336.695312 772.765625 338.964844 771.867188 341.84375 C 771.617188 342.640625 771.488281 343.484375 771.0625 344.207031 C 770.617188 344.9375 769.902344 345.464844 769.214844 345.984375 C 763.449219 350.375 758.71875 355.957031 754.046875 361.496094 C 752.65625 363.144531 751.238281 364.839844 750.5625 366.886719 C 749.886719 368.925781 750.117188 371.414062 751.691406 372.878906 C 754.363281 375.378906 758.710938 373.5625 761.695312 371.441406 C 765.320312 368.878906 768.78125 365.941406 772.886719 364.246094 C 777.003906 362.550781 782.054688 362.3125 785.617188 364.980469 C 789 367.515625 790.253906 372.054688 790.355469 376.277344 C 790.457031 380.511719 789.640625 384.722656 789.890625 388.945312 C 790.066406 391.964844 790.789062 394.929688 791.003906 397.941406 C 791.375 403.035156 790.308594 408.097656 789.753906 413.175781 C 789.464844 415.785156 789.34375 418.554688 790.550781 420.898438 C 792.753906 425.203125 798.375 426.308594 803.214844 426.335938 C 815.515625 426.417969 827.820312 422.777344 838.09375 416.027344 C 839.835938 414.878906 841.578125 413.617188 843.460938 412.738281 L 844.265625 421.195312 C 845.417969 435.828125 786.851562 438.761719 785.699219 424.128906 Z M 785.699219 424.128906 " fill-opacity="1" fill-rule="nonzero"/><g clip-path="url(#fca86a5cf6)"><path fill="#dde9fe" d="M 725.207031 475.054688 C 725.234375 485.839844 717.644531 498.984375 708.226562 504.414062 L 609.175781 561.527344 C 604.355469 564.320312 599.984375 564.519531 596.878906 562.605469 L 585.871094 556.210938 C 582.816406 554.4375 580.914062 550.660156 580.902344 545.304688 L 580.3125 332.445312 C 580.285156 321.648438 587.875 308.503906 597.28125 303.085938 L 696.332031 245.972656 C 701.066406 243.242188 705.347656 242.980469 708.453125 244.78125 L 719.648438 251.273438 C 719.574219 251.238281 719.5 251.1875 719.421875 251.160156 C 722.605469 252.875 724.59375 256.703125 724.609375 262.183594 Z M 725.207031 475.054688 " fill-opacity="1" fill-rule="nonzero"/></g><g clip-path="url(#4cb37a549e)"><path fill="#6a95d3" d="M 719.652344 251.28125 C 716.558594 249.484375 712.269531 249.742188 707.539062 252.476562 L 608.476562 309.59375 C 599.074219 315.011719 591.480469 328.152344 591.507812 338.9375 L 592.105469 551.800781 C 592.117188 557.160156 594.011719 560.933594 597.066406 562.71875 L 585.867188 556.207031 C 582.8125 554.4375 580.917969 550.664062 580.90625 545.300781 L 580.308594 332.4375 C 580.285156 321.644531 587.875 308.503906 597.277344 303.082031 L 696.328125 245.964844 C 701.070312 243.242188 705.351562 242.988281 708.453125 244.78125 Z M 719.652344 251.28125 " fill-opacity="1" fill-rule="nonzero"/></g><path fill="#dde9fe" d="M 707.535156 252.46875 C 716.941406 247.046875 724.582031 251.398438 724.613281 262.183594 L 725.203125 475.054688 C 725.234375 485.839844 717.640625 498.988281 708.234375 504.410156 L 609.179688 561.527344 C 599.773438 566.953125 592.132812 562.59375 592.101562 551.804688 L 591.511719 338.9375 C 591.480469 328.148438 599.074219 315.011719 608.480469 309.589844 Z M 707.535156 252.46875 " fill-opacity="1" fill-rule="nonzero"/><path fill="#ffffff" d="M 707.890625 263.03125 C 713.933594 259.546875 718.859375 262.363281 718.878906 269.285156 L 719.4375 471.207031 C 719.457031 478.132812 714.5625 486.609375 708.523438 490.09375 L 609.46875 547.210938 C 603.425781 550.695312 598.5 547.882812 598.480469 540.957031 L 597.921875 339.035156 C 597.902344 332.109375 602.796875 323.632812 608.835938 320.148438 Z M 707.890625 263.03125 " fill-opacity="1" fill-rule="nonzero"/><path fill="#b0c4ff" d="M 704.257812 371.859375 C 704.285156 378.738281 699.449219 387.105469 693.453125 390.558594 L 626.984375 428.886719 C 623.914062 430.664062 621.136719 430.800781 619.15625 429.574219 L 616.640625 428.109375 C 614.6875 426.984375 613.484375 424.582031 613.472656 421.167969 L 613.09375 345.089844 C 613.082031 338.210938 617.917969 329.84375 623.902344 326.390625 L 690.371094 288.0625 C 693.390625 286.324219 696.117188 286.160156 698.097656 287.3125 L 700.726562 288.839844 C 700.652344 288.789062 700.578125 288.75 700.488281 288.726562 C 702.566406 289.777344 703.871094 292.226562 703.882812 295.78125 Z M 704.257812 371.859375 " fill-opacity="1" fill-rule="nonzero"/><path fill="#92b2f9" d="M 700.726562 288.835938 C 698.757812 287.695312 696.023438 287.855469 693.011719 289.597656 L 626.539062 327.925781 C 620.550781 331.378906 615.714844 339.746094 615.730469 346.617188 L 616.109375 422.695312 C 616.117188 426.109375 617.324219 428.511719 619.273438 429.648438 L 616.636719 428.113281 C 614.691406 426.984375 613.484375 424.582031 613.476562 421.167969 L 613.09375 345.085938 C 613.078125 338.210938 617.917969 329.84375 623.90625 326.390625 L 690.371094 288.0625 C 693.390625 286.328125 696.117188 286.164062 698.09375 287.308594 Z M 700.726562 288.835938 " fill-opacity="1" fill-rule="nonzero"/><path fill="#b0c4ff" d="M 693.007812 289.59375 C 699 286.140625 703.867188 288.910156 703.886719 295.78125 L 704.265625 371.863281 C 704.285156 378.734375 699.445312 387.109375 693.457031 390.5625 L 626.988281 428.890625 C 620.996094 432.347656 616.128906 429.570312 616.109375 422.699219 L 615.730469 346.617188 C 615.714844 339.746094 620.550781 331.378906 626.539062 327.921875 Z M 693.007812 289.59375 " fill-opacity="1" fill-rule="nonzero"/><path fill="#dde9fe" d="M 694.785156 383.796875 L 625.132812 423.921875 C 623.457031 424.886719 621.359375 423.679688 621.355469 421.746094 L 621.035156 342.164062 C 621.027344 339.195312 622.609375 336.445312 625.183594 334.957031 L 694.855469 294.660156 C 696.53125 293.6875 698.632812 294.894531 698.636719 296.832031 L 698.945312 376.578125 C 698.953125 379.554688 697.367188 382.308594 694.785156 383.796875 Z M 694.785156 383.796875 " fill-opacity="1" fill-rule="nonzero"/><path fill="#ffffff" d="M 659.90625 329.601562 C 674.195312 321.363281 685.8125 327.972656 685.859375 344.375 C 685.90625 360.769531 674.363281 380.734375 660.074219 388.972656 C 645.789062 397.214844 634.171875 390.601562 634.125 374.210938 C 634.078125 357.808594 645.617188 337.84375 659.90625 329.601562 Z M 659.90625 329.601562 " fill-opacity="1" fill-rule="nonzero"/><path fill="#5789dc" d="M 659.949219 353.75 C 664.492188 351.128906 668.609375 350.863281 671.597656 352.574219 C 674.210938 354.0625 675.960938 357.039062 676.367188 361.257812 C 676.46875 362.238281 675.75 363.558594 674.835938 364.085938 L 645.15625 381.203125 C 644.242188 381.730469 643.527344 381.234375 643.613281 380.148438 C 644.429688 370.140625 651.425781 358.664062 659.949219 353.75 Z M 659.949219 353.75 " fill-opacity="1" fill-rule="nonzero"/><path fill="#5789dc" d="M 659.902344 337.925781 C 662.976562 336.152344 665.484375 337.578125 665.492188 341.105469 C 665.503906 344.644531 663.011719 348.953125 659.941406 350.726562 C 656.859375 352.503906 654.351562 351.078125 654.339844 347.539062 C 654.332031 344.011719 656.820312 339.703125 659.902344 337.925781 Z M 659.902344 337.925781 " fill-opacity="1" fill-rule="nonzero"/><path fill="#dde9fe" d="M 699.589844 400.425781 C 701.601562 399.261719 703.230469 400.199219 703.234375 402.5 L 703.269531 412.292969 C 703.277344 414.59375 701.660156 417.398438 699.644531 418.558594 L 620.394531 464.265625 C 618.390625 465.421875 616.753906 464.492188 616.746094 462.191406 L 616.714844 452.398438 C 616.707031 450.097656 618.332031 447.285156 620.335938 446.128906 Z M 699.589844 400.425781 " fill-opacity="1" fill-rule="nonzero"/><path fill="#5789dc" d="M 626.796875 447.128906 L 626.804688 450.238281 L 629.449219 447.648438 L 629.9375 448.914062 L 627.292969 451.429688 L 628.941406 453.105469 L 627.742188 454.792969 L 626.140625 452.992188 L 624.550781 456.632812 L 623.308594 456.355469 L 624.960938 452.777344 L 622.285156 453.328125 L 622.769531 451.5 L 625.394531 451.070312 L 625.386719 447.9375 Z M 626.796875 447.128906 " fill-opacity="1" fill-rule="nonzero"/><path fill="#5789dc" d="M 636.472656 441.546875 L 636.480469 444.65625 L 639.125 442.070312 L 639.617188 443.332031 L 636.972656 445.847656 L 638.621094 447.523438 L 637.417969 449.210938 L 635.824219 447.40625 L 634.226562 451.050781 L 632.984375 450.773438 L 634.644531 447.191406 L 631.96875 447.742188 L 632.449219 445.917969 L 635.074219 445.492188 L 635.066406 442.359375 Z M 636.472656 441.546875 " fill-opacity="1" fill-rule="nonzero"/><path fill="#5789dc" d="M 646.15625 435.960938 L 646.164062 439.070312 L 648.808594 436.484375 L 649.296875 437.75 L 646.652344 440.265625 L 648.296875 441.941406 L 647.097656 443.628906 L 645.5 441.828125 L 643.902344 445.46875 L 642.667969 445.1875 L 644.320312 441.609375 L 641.644531 442.164062 L 642.125 440.339844 L 644.75 439.910156 L 644.742188 436.777344 Z M 646.15625 435.960938 " fill-opacity="1" fill-rule="nonzero"/><path fill="#5789dc" d="M 655.832031 430.382812 L 655.839844 433.488281 L 658.484375 430.902344 L 658.976562 432.167969 L 656.328125 434.683594 L 657.980469 436.359375 L 656.777344 438.046875 L 655.179688 436.246094 L 653.585938 439.886719 L 652.34375 439.609375 L 654 436.03125 L 651.324219 436.582031 L 651.808594 434.753906 L 654.433594 434.324219 L 654.425781 431.191406 Z M 655.832031 430.382812 " fill-opacity="1" fill-rule="nonzero"/><path fill="#5789dc" d="M 665.511719 424.800781 L 665.519531 427.910156 L 668.164062 425.320312 L 668.65625 426.585938 L 666.007812 429.105469 L 667.660156 430.777344 L 666.457031 432.464844 L 664.859375 430.664062 L 663.265625 434.304688 L 662.023438 434.027344 L 663.679688 430.449219 L 661.003906 431 L 661.488281 429.171875 L 664.113281 428.746094 L 664.105469 425.613281 Z M 665.511719 424.800781 " fill-opacity="1" fill-rule="nonzero"/><path fill="#5789dc" d="M 675.191406 419.21875 L 675.199219 422.328125 L 677.84375 419.742188 L 678.335938 421.003906 L 675.6875 423.523438 L 677.339844 425.195312 L 676.136719 426.882812 L 674.539062 425.082031 L 672.945312 428.722656 L 671.703125 428.445312 L 673.359375 424.867188 L 670.683594 425.417969 L 671.167969 423.59375 L 673.792969 423.164062 L 673.785156 420.03125 Z M 675.191406 419.21875 " fill-opacity="1" fill-rule="nonzero"/><path fill="#5789dc" d="M 684.871094 413.636719 L 684.878906 416.746094 L 687.523438 414.160156 L 688.015625 415.421875 L 685.367188 417.941406 L 687.019531 419.613281 L 685.816406 421.300781 L 684.21875 419.5 L 682.625 423.144531 L 681.382812 422.863281 L 683.039062 419.285156 L 680.363281 419.835938 L 680.847656 418.011719 L 683.472656 417.582031 L 683.464844 414.449219 Z M 684.871094 413.636719 " fill-opacity="1" fill-rule="nonzero"/><path fill="#5789dc" d="M 694.550781 408.054688 L 694.558594 411.164062 L 697.203125 408.578125 L 697.695312 409.839844 L 695.046875 412.359375 L 696.699219 414.03125 L 695.496094 415.71875 L 693.898438 413.921875 L 692.304688 417.5625 L 691.0625 417.28125 L 692.71875 413.703125 L 690.042969 414.257812 L 690.527344 412.429688 L 693.152344 412 L 693.144531 408.867188 Z M 694.550781 408.054688 " fill-opacity="1" fill-rule="nonzero"/><path fill="#dde9fe" d="M 699.589844 428.183594 C 701.601562 427.023438 703.230469 427.960938 703.234375 430.261719 L 703.269531 440.050781 C 703.277344 442.351562 701.660156 445.15625 699.644531 446.320312 L 620.394531 492.027344 C 618.390625 493.179688 616.753906 492.25 616.746094 489.949219 L 616.714844 480.160156 C 616.707031 477.859375 618.332031 475.046875 620.335938 473.890625 Z M 699.589844 428.183594 " fill-opacity="1" fill-rule="nonzero"/><path fill="#5789dc" d="M 626.796875 474.886719 L 626.804688 477.996094 L 629.449219 475.410156 L 629.9375 476.675781 L 627.292969 479.191406 L 628.941406 480.863281 L 627.742188 482.550781 L 626.140625 480.75 L 624.550781 484.390625 L 623.308594 484.113281 L 624.960938 480.535156 L 622.285156 481.085938 L 622.769531 479.261719 L 625.394531 478.832031 L 625.386719 475.699219 Z M 626.796875 474.886719 " fill-opacity="1" fill-rule="nonzero"/><path fill="#5789dc" d="M 636.472656 469.304688 L 636.480469 472.414062 L 639.125 469.828125 L 639.617188 471.089844 L 636.972656 473.605469 L 638.621094 475.28125 L 637.417969 476.96875 L 635.824219 475.167969 L 634.226562 478.8125 L 632.984375 478.53125 L 634.644531 474.953125 L 631.96875 475.503906 L 632.449219 473.679688 L 635.074219 473.25 L 635.066406 470.117188 Z M 636.472656 469.304688 " fill-opacity="1" fill-rule="nonzero"/><path fill="#5789dc" d="M 646.15625 463.722656 L 646.164062 466.832031 L 648.808594 464.246094 L 649.296875 465.511719 L 646.652344 468.027344 L 648.296875 469.699219 L 647.097656 471.386719 L 645.5 469.585938 L 643.902344 473.230469 L 642.667969 472.949219 L 644.320312 469.371094 L 641.644531 469.921875 L 642.125 468.097656 L 644.75 467.667969 L 644.742188 464.535156 Z M 646.15625 463.722656 " fill-opacity="1" fill-rule="nonzero"/><path fill="#5789dc" d="M 655.832031 458.140625 L 655.839844 461.25 L 658.484375 458.664062 L 658.976562 459.925781 L 656.328125 462.445312 L 657.980469 464.117188 L 656.777344 465.804688 L 655.179688 464.003906 L 653.585938 467.644531 L 652.34375 467.367188 L 654 463.789062 L 651.324219 464.339844 L 651.808594 462.515625 L 654.433594 462.085938 L 654.425781 458.953125 Z M 655.832031 458.140625 " fill-opacity="1" fill-rule="nonzero"/><path fill="#5789dc" d="M 665.511719 452.558594 L 665.519531 455.667969 L 668.164062 453.082031 L 668.65625 454.34375 L 666.007812 456.863281 L 667.660156 458.535156 L 666.457031 460.222656 L 664.859375 458.421875 L 663.265625 462.066406 L 662.023438 461.785156 L 663.679688 458.207031 L 661.003906 458.757812 L 661.488281 456.933594 L 664.113281 456.503906 L 664.105469 453.371094 Z M 665.511719 452.558594 " fill-opacity="1" fill-rule="nonzero"/><path fill="#5789dc" d="M 675.191406 446.976562 L 675.199219 450.085938 L 677.84375 447.5 L 678.335938 448.765625 L 675.6875 451.28125 L 677.339844 452.953125 L 676.136719 454.640625 L 674.539062 452.84375 L 672.945312 456.484375 L 671.703125 456.203125 L 673.359375 452.625 L 670.683594 453.179688 L 671.167969 451.351562 L 673.792969 450.921875 L 673.785156 447.789062 Z M 675.191406 446.976562 " fill-opacity="1" fill-rule="nonzero"/><path fill="#5789dc" d="M 684.871094 441.394531 L 684.878906 444.503906 L 687.523438 441.917969 L 688.015625 443.183594 L 685.367188 445.699219 L 687.019531 447.375 L 685.816406 449.0625 L 684.21875 447.261719 L 682.625 450.902344 L 681.382812 450.625 L 683.039062 447.046875 L 680.363281 447.597656 L 680.847656 445.769531 L 683.472656 445.339844 L 683.464844 442.207031 Z M 684.871094 441.394531 " fill-opacity="1" fill-rule="nonzero"/><path fill="#5789dc" d="M 694.550781 435.816406 L 694.558594 438.925781 L 697.203125 436.335938 L 697.695312 437.601562 L 695.046875 440.121094 L 696.699219 441.792969 L 695.496094 443.480469 L 693.898438 441.679688 L 692.304688 445.320312 L 691.0625 445.042969 L 692.71875 441.464844 L 690.042969 442.015625 L 690.527344 440.1875 L 693.152344 439.757812 L 693.144531 436.625 Z M 694.550781 435.816406 " fill-opacity="1" fill-rule="nonzero"/><path fill="#dde9fe" d="M 677.671875 470.683594 C 683.265625 467.457031 687.820312 470.042969 687.835938 476.46875 C 687.855469 482.886719 683.328125 490.707031 677.738281 493.929688 L 642.3125 514.359375 C 636.710938 517.589844 632.164062 515 632.148438 508.582031 C 632.128906 502.15625 636.648438 494.339844 642.246094 491.109375 Z M 677.671875 470.683594 " fill-opacity="1" fill-rule="nonzero"/><path fill="#285294" d="M 644.863281 497.332031 L 644.867188 498.292969 L 641.0625 500.488281 L 641.070312 502.859375 L 644.410156 500.933594 L 644.414062 501.867188 L 641.070312 503.792969 L 641.082031 507.351562 L 640.15625 507.886719 L 640.132812 500.0625 Z M 644.863281 497.332031 " fill-opacity="1" fill-rule="nonzero"/><path fill="#285294" d="M 651.46875 494.644531 C 651.921875 495.074219 652.152344 495.832031 652.152344 496.910156 C 652.15625 498.078125 651.898438 499.199219 651.382812 500.273438 C 650.78125 501.53125 649.917969 502.484375 648.792969 503.128906 C 647.746094 503.734375 646.921875 503.8125 646.320312 503.363281 C 645.78125 502.910156 645.511719 502.089844 645.511719 500.917969 C 645.507812 499.859375 645.730469 498.824219 646.1875 497.808594 C 646.773438 496.503906 647.640625 495.519531 648.789062 494.855469 C 649.996094 494.160156 650.886719 494.089844 651.46875 494.644531 Z M 650.667969 500.097656 C 651.03125 499.214844 651.207031 498.34375 651.203125 497.472656 C 651.203125 496.554688 650.992188 495.933594 650.574219 495.613281 C 650.152344 495.296875 649.574219 495.347656 648.847656 495.765625 C 648.144531 496.171875 647.570312 496.78125 647.128906 497.597656 C 646.679688 498.40625 646.460938 499.355469 646.464844 500.4375 C 646.46875 501.304688 646.660156 501.921875 647.042969 502.300781 C 647.425781 502.671875 648.046875 502.617188 648.90625 502.121094 C 649.71875 501.652344 650.308594 500.972656 650.667969 500.097656 " fill-opacity="1" fill-rule="nonzero"/><path fill="#285294" d="M 658.738281 496.511719 C 658.792969 496.730469 658.890625 496.832031 659.035156 496.824219 L 659.035156 496.996094 L 657.902344 497.652344 C 657.875 497.601562 657.847656 497.523438 657.828125 497.433594 C 657.808594 497.335938 657.792969 497.136719 657.777344 496.839844 L 657.71875 495.566406 C 657.699219 495.070312 657.53125 494.820312 657.21875 494.824219 C 657.042969 494.832031 656.765625 494.945312 656.386719 495.164062 L 654.285156 496.375 L 654.296875 499.730469 L 653.375 500.261719 L 653.355469 492.4375 L 656.507812 490.617188 C 657.023438 490.320312 657.453125 490.15625 657.792969 490.136719 C 658.433594 490.101562 658.757812 490.53125 658.757812 491.429688 C 658.761719 491.898438 658.675781 492.332031 658.511719 492.726562 C 658.34375 493.125 658.109375 493.496094 657.804688 493.855469 C 658.070312 493.824219 658.273438 493.871094 658.40625 494 C 658.539062 494.125 658.621094 494.410156 658.636719 494.851562 L 658.667969 495.886719 C 658.679688 496.179688 658.703125 496.386719 658.738281 496.511719 Z M 657.449219 493.371094 C 657.699219 493.027344 657.824219 492.59375 657.824219 492.070312 C 657.824219 491.519531 657.644531 491.238281 657.289062 491.242188 C 657.101562 491.242188 656.851562 491.332031 656.535156 491.511719 L 654.277344 492.816406 L 654.285156 495.488281 L 656.421875 494.257812 C 656.851562 494.007812 657.199219 493.710938 657.449219 493.371094 " fill-opacity="1" fill-rule="nonzero"/><path fill="#285294" d="M 663.050781 486.644531 C 663.6875 486.273438 664.246094 486.09375 664.714844 486.113281 C 665.390625 486.128906 665.804688 486.605469 665.960938 487.542969 L 665.050781 488.070312 C 664.933594 487.558594 664.703125 487.277344 664.351562 487.214844 C 664 487.15625 663.558594 487.28125 663.027344 487.589844 C 662.398438 487.953125 661.867188 488.53125 661.4375 489.320312 C 661.007812 490.117188 660.792969 491.050781 660.796875 492.125 C 660.800781 493.054688 660.980469 493.710938 661.339844 494.085938 C 661.695312 494.46875 662.277344 494.421875 663.078125 493.957031 C 663.695312 493.605469 664.207031 493.105469 664.609375 492.464844 C 665.011719 491.820312 665.214844 491.039062 665.21875 490.117188 L 663.085938 491.34375 L 663.085938 490.46875 L 666.078125 488.742188 L 666.089844 492.929688 L 665.492188 493.273438 L 665.269531 492.394531 C 664.953125 492.96875 664.679688 493.402344 664.4375 493.695312 C 664.035156 494.1875 663.519531 494.621094 662.894531 494.980469 C 662.085938 495.445312 661.394531 495.546875 660.8125 495.277344 C 660.171875 494.894531 659.855469 494.039062 659.851562 492.730469 C 659.847656 491.417969 660.15625 490.195312 660.769531 489.066406 C 661.355469 487.992188 662.113281 487.183594 663.050781 486.644531 Z M 663.050781 486.644531 " fill-opacity="1" fill-rule="nonzero"/><path fill="#285294" d="M 673.113281 482.164062 C 673.566406 482.589844 673.796875 483.347656 673.800781 484.425781 C 673.800781 485.59375 673.542969 486.71875 673.03125 487.789062 C 672.425781 489.046875 671.5625 490 670.441406 490.648438 C 669.390625 491.25 668.570312 491.332031 667.964844 490.878906 C 667.425781 490.425781 667.160156 489.609375 667.15625 488.433594 C 667.152344 487.375 667.375 486.34375 667.832031 485.328125 C 668.414062 484.023438 669.285156 483.035156 670.4375 482.371094 C 671.636719 481.679688 672.527344 481.609375 673.113281 482.164062 Z M 672.308594 487.617188 C 672.671875 486.734375 672.851562 485.859375 672.847656 484.992188 C 672.847656 484.070312 672.636719 483.449219 672.21875 483.132812 C 671.792969 482.816406 671.222656 482.863281 670.492188 483.28125 C 669.789062 483.6875 669.214844 484.296875 668.773438 485.113281 C 668.328125 485.925781 668.105469 486.871094 668.109375 487.957031 C 668.113281 488.820312 668.308594 489.4375 668.6875 489.820312 C 669.074219 490.191406 669.695312 490.132812 670.550781 489.636719 C 671.363281 489.171875 671.953125 488.492188 672.308594 487.617188 " fill-opacity="1" fill-rule="nonzero"/><path fill="#285294" d="M 679.847656 477.160156 L 679.847656 478.089844 L 677.550781 479.417969 L 677.570312 486.308594 L 676.636719 486.847656 L 676.617188 479.957031 L 674.316406 481.28125 L 674.316406 480.347656 Z M 679.847656 477.160156 " fill-opacity="1" fill-rule="nonzero"/><path fill="#b0c4ff" d="M 685.636719 541.226562 C 685.589844 541.203125 685.539062 541.164062 685.488281 541.140625 C 685.351562 541.050781 685.226562 540.953125 685.113281 540.851562 C 685.273438 540.988281 685.449219 541.113281 685.636719 541.226562 Z M 685.636719 541.226562 " fill-opacity="1" fill-rule="nonzero"/><path fill="#b0c4ff" d="M 763.664062 499.109375 L 691.671875 540.625 C 689.21875 542.054688 687.128906 542.117188 685.636719 541.226562 C 685.449219 541.113281 685.273438 540.988281 685.113281 540.851562 C 685.226562 540.953125 685.351562 541.050781 685.488281 541.140625 L 680.792969 538.414062 C 677.960938 536.773438 677.234375 531.707031 680.101562 525.867188 L 715.96875 446 C 717.65625 442.558594 720.125 439.894531 722.589844 438.480469 C 724.78125 437.21875 726.949219 436.917969 728.601562 437.878906 L 733.484375 440.707031 C 733.710938 440.832031 733.925781 440.996094 734.125 441.171875 L 770.265625 479.523438 C 774.683594 483.363281 770.753906 495.03125 763.664062 499.109375 Z M 763.664062 499.109375 " fill-opacity="1" fill-rule="nonzero"/><path fill="#b0c4ff" d="M 685.636719 541.226562 C 685.589844 541.203125 685.539062 541.164062 685.488281 541.140625 C 685.351562 541.050781 685.226562 540.953125 685.113281 540.851562 C 685.273438 540.988281 685.449219 541.113281 685.636719 541.226562 Z M 685.636719 541.226562 " fill-opacity="1" fill-rule="nonzero"/><path fill="#92b2f9" d="M 733.484375 440.699219 C 731.832031 439.742188 729.648438 440.042969 727.480469 441.300781 C 725.007812 442.730469 722.535156 445.382812 720.839844 448.832031 L 684.992188 528.707031 C 682.117188 534.542969 682.847656 539.605469 685.675781 541.253906 L 680.789062 538.417969 C 677.960938 536.78125 677.234375 531.703125 680.109375 525.867188 L 715.964844 445.996094 C 717.652344 442.558594 720.121094 439.894531 722.59375 438.472656 C 724.777344 437.21875 726.949219 436.917969 728.597656 437.875 Z M 733.484375 440.699219 " fill-opacity="1" fill-rule="nonzero"/><path fill="#b0c4ff" d="M 727.476562 441.304688 C 729.949219 439.878906 732.429688 439.683594 734.128906 441.167969 L 770.265625 479.523438 C 774.679688 483.363281 770.753906 495.027344 763.667969 499.113281 L 691.679688 540.632812 C 684.59375 544.71875 680.613281 537.613281 684.988281 528.707031 L 720.84375 448.828125 C 722.535156 445.390625 725.003906 442.730469 727.476562 441.304688 Z M 727.476562 441.304688 " fill-opacity="1" fill-rule="nonzero"/><path fill="#dde9fe" d="M 727.625 461.277344 C 731.0625 459.296875 733.792969 461.058594 733.578125 465.121094 L 732.660156 486.382812 C 732.5 489.480469 730.347656 493.0625 727.71875 494.578125 C 725.105469 496.089844 722.929688 495 722.75 492.097656 L 721.714844 471.960938 C 721.488281 468.15625 724.203125 463.25 727.625 461.277344 Z M 727.625 461.277344 " fill-opacity="1" fill-rule="nonzero"/><path fill="#dde9fe" d="M 727.742188 498.328125 C 730.210938 496.90625 732.230469 498.054688 732.238281 500.90625 C 732.246094 503.753906 730.242188 507.210938 727.769531 508.636719 C 725.273438 510.078125 723.265625 508.933594 723.257812 506.082031 C 723.25 503.234375 725.246094 499.769531 727.742188 498.328125 Z M 727.742188 498.328125 " fill-opacity="1" fill-rule="nonzero"/><path fill="#b0c4ff" d="M 763.140625 301.335938 C 763.152344 304.472656 760.949219 308.300781 758.21875 309.890625 L 730.71875 325.828125 C 730.429688 325.988281 730.179688 326.277344 730.003906 326.601562 L 722.867188 339.910156 C 722.753906 340.097656 722.617188 340.238281 722.492188 340.324219 C 722.304688 340.425781 722.128906 340.425781 722.039062 340.300781 L 718.671875 338.359375 C 718.585938 338.296875 718.523438 338.171875 718.535156 337.972656 L 718.847656 332.695312 L 716.054688 334.320312 C 714.691406 335.109375 713.449219 335.183594 712.546875 334.65625 L 712.398438 334.570312 L 709.117188 332.65625 C 708.214844 332.144531 707.675781 331.042969 707.664062 329.480469 L 707.601562 305.386719 C 707.601562 302.234375 709.804688 298.421875 712.535156 296.84375 L 754.6875 272.402344 C 756.078125 271.613281 757.316406 271.539062 758.21875 272.0625 L 761.4375 273.953125 C 762.4375 274.414062 763.0625 275.554688 763.078125 277.230469 Z M 763.140625 301.335938 " fill-opacity="1" fill-rule="nonzero"/><path fill="#92b2f9" d="M 721.957031 339.980469 C 721.957031 340.179688 722.007812 340.296875 722.113281 340.351562 L 718.675781 338.363281 C 718.585938 338.296875 718.519531 338.175781 718.53125 337.976562 L 719.023438 329.804688 C 719.035156 329.460938 718.929688 329.222656 718.742188 329.101562 L 722.167969 331.105469 C 722.351562 331.210938 722.472656 331.464844 722.445312 331.808594 Z M 721.957031 339.980469 " fill-opacity="1" fill-rule="nonzero"/><path fill="#92b2f9" d="M 761.636719 274.066406 C 760.738281 273.535156 759.496094 273.613281 758.121094 274.410156 L 715.953125 298.84375 C 713.230469 300.421875 711.023438 304.242188 711.039062 307.386719 L 711.101562 331.476562 C 711.101562 333.042969 711.660156 334.144531 712.542969 334.660156 L 709.121094 332.65625 C 708.222656 332.140625 707.679688 331.039062 707.667969 329.472656 L 707.601562 305.382812 C 707.601562 302.242188 709.808594 298.421875 712.53125 296.839844 L 754.683594 272.40625 C 756.074219 271.609375 757.316406 271.542969 758.214844 272.0625 Z M 761.636719 274.066406 " fill-opacity="1" fill-rule="nonzero"/><path fill="#b0c4ff" d="M 758.121094 274.414062 C 760.851562 272.828125 763.066406 274.09375 763.074219 277.234375 L 763.140625 301.335938 C 763.152344 304.476562 760.953125 308.308594 758.21875 309.890625 L 730.714844 325.828125 C 730.433594 325.988281 730.175781 326.269531 730 326.601562 L 722.863281 339.90625 C 722.753906 340.105469 722.621094 340.242188 722.488281 340.320312 C 722.207031 340.480469 721.941406 340.375 721.960938 339.976562 L 722.445312 331.800781 C 722.484375 331.144531 722.046875 330.847656 721.488281 331.171875 L 716.054688 334.320312 C 713.332031 335.898438 711.109375 334.628906 711.101562 331.476562 L 711.03125 307.386719 C 711.023438 304.246094 713.230469 300.417969 715.953125 298.84375 Z M 758.121094 274.414062 " fill-opacity="1" fill-rule="nonzero"/><path fill="#5789dc" d="M 746.855469 289.808594 C 750.902344 287.464844 754.191406 289.34375 754.207031 294 C 754.21875 298.652344 750.949219 304.335938 746.902344 306.679688 C 743.75 308.507812 741.070312 307.753906 740.03125 305.152344 L 732.429688 309.558594 L 732.433594 311.449219 C 732.4375 312.265625 731.863281 313.261719 731.164062 313.664062 C 730.464844 314.070312 729.890625 313.742188 729.886719 312.921875 L 729.882812 311.03125 L 727.429688 312.453125 L 727.4375 315.203125 C 727.441406 316.011719 726.867188 317.003906 726.167969 317.410156 C 725.445312 317.828125 724.871094 317.496094 724.867188 316.691406 L 724.859375 313.941406 L 722.523438 315.296875 C 721.125 316.105469 719.972656 315.449219 719.96875 313.835938 C 719.964844 313.03125 720.238281 312.128906 720.707031 311.328125 C 721.164062 310.535156 721.804688 309.832031 722.503906 309.425781 L 740.011719 299.28125 C 741.035156 295.484375 743.703125 291.636719 746.855469 289.808594 Z M 746.890625 302 C 748.699219 300.949219 750.140625 298.433594 750.132812 296.359375 C 750.128906 294.28125 748.679688 293.441406 746.867188 294.488281 C 745.066406 295.53125 743.605469 298.0625 743.609375 300.136719 C 743.617188 302.214844 745.089844 303.042969 746.890625 302 " fill-opacity="1" fill-rule="nonzero"/><path fill="#e7e8ff" d="M 489.679688 810.089844 L 956.097656 810.089844 C 988.878906 810.089844 1021.113281 801.683594 1049.738281 785.667969 C 1147.148438 731.167969 1177.972656 605.234375 1116.804688 511.699219 L 1100.796875 487.222656 C 1074.117188 446.425781 1068.5 395.292969 1085.6875 349.648438 L 1107.183594 292.546875 C 1138.308594 209.890625 1069.828125 123.96875 982.5625 136.1875 C 956.25 139.871094 929.472656 134.390625 906.703125 120.660156 L 781.160156 44.953125 C 722.703125 9.703125 652.378906 0.0585938 586.628906 18.273438 L 531.050781 33.675781 C 424.042969 63.324219 363.609375 176.792969 398.546875 282.460938 L 409.808594 316.519531 C 430.492188 379.078125 407.179688 447.804688 352.746094 484.738281 C 291.144531 526.539062 270.457031 607.933594 304.597656 674.195312 L 321.800781 707.585938 C 354.242188 770.546875 419.007812 810.089844 489.679688 810.089844 Z M 489.679688 810.089844 " fill-opacity="1" fill-rule="nonzero"/><path fill="#032068" d="M 1115.882812 691.335938 C 1116.59375 745.675781 1079.734375 791.554688 1061.015625 807.621094 L 1032.324219 807.621094 C 1053.652344 735.121094 1088.914062 699.070312 1108.671875 687.074219 C 1111.960938 685.078125 1115.832031 687.472656 1115.882812 691.335938 Z M 1115.882812 691.335938 " fill-opacity="1" fill-rule="nonzero"/><path fill="#ffffff" d="M 1118.914062 513.054688 C 1148.304688 624.160156 1074.222656 755.75 1042.367188 804.734375 L 977.816406 804.734375 C 1005.542969 595.101562 1052.027344 544.152344 1110.792969 509.726562 C 1113.949219 507.878906 1117.976562 509.507812 1118.914062 513.054688 Z M 1118.914062 513.054688 " fill-opacity="1" fill-rule="nonzero"/><path fill="#032068" d="M 1112.238281 512.21875 C 1113.789062 511.308594 1115.699219 512.125 1116.140625 513.796875 C 1130.621094 568.535156 1119.648438 628.550781 1100.90625 681.21875 C 1082.507812 732.914062 1056.75 777.191406 1040.8125 801.851562 L 981.09375 801.851562 C 994.890625 699.074219 1013.234375 635.21875 1035.207031 592.863281 C 1057.332031 550.207031 1083.207031 529.226562 1112.238281 512.21875 Z M 1121.6875 512.316406 C 1120.253906 506.890625 1114.109375 504.445312 1109.351562 507.234375 C 1079.617188 524.652344 1052.859375 546.359375 1030.121094 590.195312 C 1007.460938 633.878906 988.851562 699.414062 974.972656 804.355469 L 974.539062 807.621094 L 1043.917969 807.621094 L 1044.765625 806.316406 C 1060.765625 781.714844 1087.375 736.359375 1106.308594 683.164062 C 1125.222656 630.015625 1136.597656 568.683594 1121.6875 512.316406 Z M 1121.6875 512.316406 " fill-opacity="1" fill-rule="evenodd"/><path fill="#032068" d="M 1014.832031 581.410156 C 1040.21875 674.519531 1011.160156 771.277344 992.160156 807.621094 L 944.820312 807.621094 C 934.175781 694.144531 977.449219 611.625 1005.902344 579.1875 C 1008.710938 575.988281 1013.710938 577.292969 1014.832031 581.410156 Z M 1014.832031 581.410156 " fill-opacity="1" fill-rule="nonzero"/><path fill="#032068" d="M 1078.730469 592.117188 L 1094.175781 548.492188 L 1099.578125 550.425781 L 1064.207031 650.34375 L 1087.445312 643.328125 L 1089.09375 648.851562 L 1061.820312 657.085938 L 1029.652344 747.957031 L 1058.605469 737.132812 L 1060.605469 742.539062 L 1027.140625 755.050781 L 1009.210938 805.703125 L 1003.804688 803.769531 L 1040.222656 700.898438 L 1026.753906 662.925781 L 1032.160156 660.984375 L 1043.265625 692.300781 L 1075.476562 601.304688 L 1065.4375 567.59375 L 1070.9375 565.941406 Z M 1078.730469 592.117188 " fill-opacity="1" fill-rule="evenodd"/><path fill="#ffffff" d="M 990.628906 655.757812 L 997.945312 615.289062 L 1003.59375 616.320312 L 988.734375 698.46875 L 1008.039062 688.246094 L 1010.714844 693.351562 L 987.433594 705.679688 L 974.691406 776.136719 L 990.652344 763.527344 L 994.195312 768.0625 L 973.144531 784.695312 L 969.164062 806.695312 L 963.519531 805.660156 L 973.722656 749.230469 L 956.894531 727.167969 L 961.445312 723.65625 L 975.109375 741.566406 L 989.34375 662.855469 L 975.710938 648.050781 L 979.921875 644.132812 Z M 990.628906 655.757812 " fill-opacity="1" fill-rule="evenodd"/><path fill="#ffffff" d="M 1040.644531 240.140625 L 1049.21875 228.273438 C 1050.746094 226.160156 1054.085938 227.25 1054.074219 229.859375 L 1054.007812 244.15625 C 1054.003906 245.019531 1054.417969 245.835938 1055.121094 246.339844 L 1067.800781 255.503906 C 1069.84375 256.984375 1068.90625 260.203125 1066.390625 260.355469 L 1050.605469 261.308594 C 1049.839844 261.351562 1049.128906 261.726562 1048.652344 262.332031 L 1037.957031 276.023438 C 1036.367188 278.054688 1033.105469 276.894531 1033.160156 274.3125 L 1033.523438 258.027344 C 1033.542969 257.234375 1033.207031 256.472656 1032.609375 255.949219 L 1019.28125 244.273438 C 1017.320312 242.554688 1018.714844 239.332031 1021.308594 239.585938 L 1038.207031 241.238281 C 1039.160156 241.332031 1040.085938 240.914062 1040.644531 240.140625 Z M 1040.644531 240.140625 " fill-opacity="1" fill-rule="nonzero"/><path fill="#032068" d="M 1127.546875 398.546875 L 1131.691406 396.273438 C 1133.980469 395.023438 1136.527344 397.441406 1135.394531 399.789062 L 1133.40625 403.925781 C 1133.03125 404.703125 1133.054688 405.617188 1133.472656 406.375 L 1136.222656 411.40625 C 1137.433594 413.617188 1135.203125 416.121094 1132.867188 415.179688 L 1127.394531 412.96875 C 1126.679688 412.679688 1125.878906 412.710938 1125.191406 413.058594 L 1119.285156 416.007812 C 1116.980469 417.160156 1114.53125 414.707031 1115.691406 412.402344 L 1118.363281 407.097656 C 1118.71875 406.390625 1118.746094 405.558594 1118.429688 404.828125 L 1115.78125 398.691406 C 1114.75 396.300781 1117.394531 393.988281 1119.628906 395.332031 L 1124.875 398.488281 C 1125.695312 398.980469 1126.710938 399.003906 1127.546875 398.546875 Z M 1127.546875 398.546875 " fill-opacity="1" fill-rule="nonzero"/><path fill="#ffffff" d="M 501.761719 211.941406 C 501.761719 247.984375 472.542969 277.203125 436.503906 277.203125 C 400.464844 277.203125 371.246094 247.984375 371.246094 211.941406 C 371.246094 175.898438 400.464844 146.679688 436.503906 146.679688 C 472.542969 146.679688 501.761719 175.898438 501.761719 211.941406 Z M 501.761719 211.941406 " fill-opacity="1" fill-rule="nonzero"/><path fill="#032068" d="M 436.503906 148.15625 C 401.277344 148.15625 372.722656 176.710938 372.722656 211.941406 C 372.722656 247.167969 401.277344 275.726562 436.503906 275.726562 C 471.726562 275.726562 500.285156 247.167969 500.285156 211.941406 C 500.285156 176.710938 471.726562 148.15625 436.503906 148.15625 Z M 369.769531 211.941406 C 369.769531 175.082031 399.648438 145.207031 436.503906 145.207031 C 473.359375 145.207031 503.234375 175.082031 503.234375 211.941406 C 503.234375 248.796875 473.359375 278.675781 436.503906 278.675781 C 399.648438 278.675781 369.769531 248.796875 369.769531 211.941406 Z M 369.769531 211.941406 " fill-opacity="1" fill-rule="evenodd"/><path fill="#032068" d="M 427.28125 232.460938 C 427.28125 226.613281 427.984375 221.953125 429.394531 218.488281 C 430.800781 215.023438 433.367188 211.617188 437.089844 208.277344 C 440.855469 204.894531 443.359375 202.15625 444.601562 200.066406 C 445.84375 197.9375 446.464844 195.703125 446.464844 193.367188 C 446.464844 186.304688 443.238281 182.777344 436.78125 182.777344 C 433.71875 182.777344 431.253906 183.738281 429.394531 185.660156 C 427.570312 187.539062 426.621094 190.148438 426.535156 193.492188 L 408.535156 193.492188 C 408.617188 185.511719 411.160156 179.269531 416.167969 174.757812 C 421.21875 170.246094 428.089844 167.988281 436.78125 167.988281 C 445.554688 167.988281 452.363281 170.140625 457.203125 174.445312 C 462.046875 178.703125 464.46875 184.738281 464.46875 192.550781 C 464.46875 196.101562 463.683594 199.464844 462.109375 202.636719 C 460.535156 205.769531 457.785156 209.257812 453.851562 213.101562 L 448.824219 217.925781 C 445.679688 220.976562 443.878906 224.546875 443.421875 228.640625 L 443.175781 232.460938 Z M 425.480469 251.695312 C 425.480469 248.894531 426.414062 246.597656 428.277344 244.804688 C 430.179688 242.964844 432.601562 242.046875 435.539062 242.046875 C 438.476562 242.046875 440.878906 242.964844 442.738281 244.804688 C 444.644531 246.597656 445.597656 248.894531 445.597656 251.695312 C 445.597656 254.453125 444.664062 256.730469 442.800781 258.523438 C 440.980469 260.320312 438.558594 261.21875 435.539062 261.21875 C 432.515625 261.21875 430.074219 260.320312 428.214844 258.523438 C 426.390625 256.730469 425.480469 254.453125 425.480469 251.695312 Z M 425.480469 251.695312 " fill-opacity="1" fill-rule="nonzero"/><path fill="#ffffff" d="M 577.382812 118.058594 C 577.382812 101.679688 590.660156 88.398438 607.042969 88.398438 L 944.460938 88.398438 C 960.84375 88.398438 974.121094 101.679688 974.121094 118.058594 L 974.121094 777.863281 C 974.121094 794.242188 960.84375 807.523438 944.460938 807.523438 L 607.042969 807.523438 C 590.660156 807.523438 577.382812 794.242188 577.382812 777.863281 Z M 577.382812 118.058594 " fill-opacity="1" fill-rule="nonzero"/><path fill="#032068" d="M 574.910156 118.058594 C 574.910156 100.3125 589.292969 85.925781 607.039062 85.925781 L 944.460938 85.925781 C 962.203125 85.925781 976.589844 100.3125 976.589844 118.058594 L 976.589844 777.863281 C 976.589844 795.609375 962.203125 809.996094 944.460938 809.996094 L 607.039062 809.996094 C 589.292969 809.996094 574.910156 795.609375 574.910156 777.863281 Z M 607.039062 90.871094 C 592.023438 90.871094 579.851562 103.042969 579.851562 118.058594 L 579.851562 777.863281 C 579.851562 792.878906 592.023438 805.050781 607.039062 805.050781 L 944.460938 805.050781 C 959.472656 805.050781 971.644531 792.878906 971.644531 777.863281 L 971.644531 118.058594 C 971.644531 103.042969 959.472656 90.871094 944.460938 90.871094 Z M 607.039062 90.871094 " fill-opacity="1" fill-rule="evenodd"/><path fill="#e7e8ff" d="M 898.6875 352.828125 C 898.6875 421.082031 843.359375 476.414062 775.109375 476.414062 C 706.855469 476.414062 651.53125 421.082031 651.53125 352.828125 C 651.53125 284.574219 706.855469 229.242188 775.109375 229.242188 C 843.359375 229.242188 898.6875 284.574219 898.6875 352.828125 Z M 898.6875 352.828125 " fill-opacity="1" fill-rule="nonzero"/><path fill="#ffffff" d="M 950.589844 268.789062 C 950.589844 300.1875 925.140625 325.640625 893.746094 325.640625 C 862.351562 325.640625 836.898438 300.1875 836.898438 268.789062 C 836.898438 237.390625 862.351562 211.9375 893.746094 211.9375 C 925.140625 211.9375 950.589844 237.390625 950.589844 268.789062 Z M 950.589844 268.789062 " fill-opacity="1" fill-rule="nonzero"/><path fill="#032068" d="M 893.742188 214.414062 C 863.710938 214.414062 839.367188 238.757812 839.367188 268.789062 C 839.367188 298.820312 863.710938 323.167969 893.742188 323.167969 C 923.773438 323.167969 948.117188 298.820312 948.117188 268.789062 C 948.117188 238.757812 923.773438 214.414062 893.742188 214.414062 Z M 834.425781 268.789062 C 834.425781 236.027344 860.984375 209.46875 893.742188 209.46875 C 926.503906 209.46875 953.058594 236.027344 953.058594 268.789062 C 953.058594 301.550781 926.503906 328.109375 893.742188 328.109375 C 860.984375 328.109375 834.425781 301.550781 834.425781 268.789062 Z M 834.425781 268.789062 " fill-opacity="1" fill-rule="evenodd"/><path fill="#032068" d="M 878.296875 267.554688 L 861.617188 284.238281 L 878.300781 300.921875 L 894.980469 284.238281 L 911.664062 300.921875 L 928.34375 284.238281 L 911.664062 267.554688 L 928.347656 250.871094 L 911.664062 234.183594 L 894.980469 250.871094 L 878.296875 234.183594 L 861.617188 250.871094 Z M 878.296875 267.554688 " fill-opacity="1" fill-rule="evenodd"/><path fill="#032068" d="M 696.867188 112.507812 L 684.007812 88.398438 L 867.5 88.398438 L 852.382812 113.59375 C 847.917969 121.039062 839.871094 125.59375 831.1875 125.59375 L 718.675781 125.59375 C 709.546875 125.59375 701.164062 120.5625 696.867188 112.507812 Z M 696.867188 112.507812 " fill-opacity="1" fill-rule="nonzero"/><path fill="#032068" d="M 969.253906 103.277344 L 579.71875 103.277344 C 592.613281 90.382812 604.929688 87.984375 609.476562 88.398438 L 939.5 88.398438 C 955.371094 88.398438 965.949219 98.316406 969.253906 103.277344 Z M 969.253906 103.277344 " fill-opacity="1" fill-rule="nonzero"/><path fill="#032068" d="M 968.953125 793.421875 L 582.324219 793.421875 C 595.722656 806.523438 603.46875 808.960938 608.195312 808.539062 L 943.085938 808.539062 C 959.578125 808.539062 965.519531 798.460938 968.953125 793.421875 Z M 968.953125 793.421875 " fill-opacity="1" fill-rule="nonzero"/><path fill="#032068" d="M 634.230469 182.28125 C 634.230469 179.546875 636.441406 177.335938 639.175781 177.335938 L 770.800781 177.335938 C 773.527344 177.335938 775.742188 179.546875 775.742188 182.28125 L 775.742188 187.554688 C 775.742188 190.285156 773.527344 192.5 770.800781 192.5 L 639.175781 192.5 C 636.441406 192.5 634.230469 190.285156 634.230469 187.554688 Z M 634.230469 182.28125 " fill-opacity="1" fill-rule="nonzero"/><path fill="#032068" d="M 634.230469 515.957031 C 634.230469 513.230469 636.441406 511.015625 639.175781 511.015625 L 770.800781 511.015625 C 773.527344 511.015625 775.742188 513.230469 775.742188 515.957031 L 775.742188 521.234375 C 775.742188 523.964844 773.527344 526.179688 770.800781 526.179688 L 639.175781 526.179688 C 636.441406 526.179688 634.230469 523.964844 634.230469 521.234375 Z M 634.230469 515.957031 " fill-opacity="1" fill-rule="nonzero"/><path fill="#032068" d="M 634.230469 646.960938 C 634.230469 644.230469 636.441406 642.015625 639.175781 642.015625 L 718.265625 642.015625 C 720.992188 642.015625 723.207031 644.230469 723.207031 646.960938 L 723.207031 651.902344 C 723.207031 654.632812 720.992188 656.847656 718.265625 656.847656 L 639.175781 656.847656 C 636.441406 656.847656 634.230469 654.632812 634.230469 651.902344 Z M 634.230469 646.960938 " fill-opacity="1" fill-rule="nonzero"/><path fill="#e7e8ff" d="M 631.757812 553.035156 C 631.757812 548.941406 635.074219 545.621094 639.171875 545.621094 L 903.628906 545.621094 C 907.726562 545.621094 911.046875 548.941406 911.046875 553.035156 L 911.046875 602.46875 C 911.046875 606.566406 907.726562 609.882812 903.628906 609.882812 L 639.171875 609.882812 C 635.074219 609.882812 631.757812 606.566406 631.757812 602.46875 Z M 639.171875 550.5625 C 637.808594 550.5625 636.699219 551.667969 636.699219 553.035156 L 636.699219 602.46875 C 636.699219 603.832031 637.808594 604.941406 639.171875 604.941406 L 903.628906 604.941406 C 904.992188 604.941406 906.101562 603.832031 906.101562 602.46875 L 906.101562 553.035156 C 906.101562 551.667969 904.992188 550.5625 903.628906 550.5625 Z M 639.171875 550.5625 " fill-opacity="1" fill-rule="evenodd"/><path fill="#e7e8ff" d="M 631.757812 681.5625 C 631.757812 677.46875 635.074219 674.148438 639.171875 674.148438 L 903.628906 674.148438 C 907.726562 674.148438 911.046875 677.46875 911.046875 681.5625 L 911.046875 730.996094 C 911.046875 735.09375 907.726562 738.414062 903.628906 738.414062 L 639.171875 738.414062 C 635.074219 738.414062 631.757812 735.09375 631.757812 730.996094 Z M 639.171875 679.09375 C 637.808594 679.09375 636.699219 680.199219 636.699219 681.5625 L 636.699219 730.996094 C 636.699219 732.363281 637.808594 733.46875 639.171875 733.46875 L 903.628906 733.46875 C 904.992188 733.46875 906.101562 732.363281 906.101562 730.996094 L 906.101562 681.5625 C 906.101562 680.199219 904.992188 679.09375 903.628906 679.09375 Z M 639.171875 679.09375 " fill-opacity="1" fill-rule="evenodd"/><path fill="#032068" d="M 941.324219 123.734375 L 946.265625 123.734375 L 946.265625 143.953125 L 941.324219 143.953125 Z M 941.324219 123.734375 " fill-opacity="1" fill-rule="evenodd"/><path fill="#032068" d="M 928.6875 126.261719 L 933.632812 126.261719 L 933.632812 143.953125 L 928.6875 143.953125 Z M 928.6875 126.261719 " fill-opacity="1" fill-rule="evenodd"/><path fill="#032068" d="M 916.050781 131.316406 L 920.996094 131.316406 L 920.996094 143.953125 L 916.050781 143.953125 Z M 916.050781 131.316406 " fill-opacity="1" fill-rule="evenodd"/><path fill="#032068" d="M 903.417969 136.371094 L 908.359375 136.371094 L 908.359375 143.953125 L 903.417969 143.953125 Z M 903.417969 136.371094 " fill-opacity="1" fill-rule="evenodd"/><path fill="#032068" d="M 775.050781 280.316406 C 752.558594 280.316406 734.324219 298.855469 734.324219 321.71875 L 734.324219 350.066406 C 734.324219 353.429688 737.050781 356.160156 740.414062 356.160156 C 743.777344 356.160156 746.503906 353.429688 746.503906 350.066406 L 746.503906 320.945312 C 746.503906 304.917969 759.285156 291.925781 775.050781 291.925781 C 790.816406 291.925781 803.597656 304.917969 803.597656 320.945312 L 803.597656 348.546875 C 803.597656 351.914062 806.324219 354.640625 809.6875 354.640625 C 813.050781 354.640625 815.777344 351.914062 815.777344 348.546875 L 815.777344 321.71875 C 815.777344 298.855469 797.542969 280.316406 775.050781 280.316406 Z M 775.050781 280.316406 " fill-opacity="1" fill-rule="evenodd"/><path fill="#032068" d="M 723.089844 349.527344 C 723.089844 345.433594 726.410156 342.113281 730.503906 342.113281 L 819.597656 342.113281 C 823.691406 342.113281 827.011719 345.433594 827.011719 349.527344 L 827.011719 416.15625 C 827.011719 420.25 823.691406 423.570312 819.597656 423.570312 L 730.503906 423.570312 C 726.410156 423.570312 723.089844 420.25 723.089844 416.15625 Z M 723.089844 349.527344 " fill-opacity="1" fill-rule="nonzero"/><path fill="#ffffff" d="M 781.683594 386.210938 C 784.089844 384.273438 785.628906 381.300781 785.628906 377.96875 C 785.628906 372.128906 780.894531 367.394531 775.054688 367.394531 C 769.214844 367.394531 764.480469 372.128906 764.480469 377.96875 C 764.480469 381.601562 766.308594 384.800781 769.09375 386.707031 L 766.734375 396.621094 C 766.382812 398.097656 767.503906 399.511719 769.023438 399.511719 L 781.871094 399.511719 C 783.390625 399.511719 784.511719 398.097656 784.160156 396.621094 Z M 781.683594 386.210938 " fill-opacity="1" fill-rule="evenodd"/><path fill="#032068" d="M 929.984375 570.335938 L 869.859375 570.335938 C 866.128906 570.335938 863.742188 566.355469 865.5 563.0625 L 895.5625 506.816406 C 897.425781 503.328125 902.421875 503.328125 904.28125 506.816406 L 934.34375 563.0625 C 936.101562 566.355469 933.71875 570.335938 929.984375 570.335938 Z M 929.984375 570.335938 " fill-opacity="1" fill-rule="nonzero"/><path fill="#ffffff" d="M 897.164062 549.203125 L 902.578125 549.203125 L 903.429688 525.847656 L 896.316406 525.847656 Z M 903.628906 556.484375 C 903.628906 555.324219 903.277344 554.378906 902.578125 553.640625 C 901.863281 552.890625 900.980469 552.515625 899.921875 552.515625 C 898.863281 552.515625 897.984375 552.890625 897.285156 553.640625 C 896.570312 554.378906 896.214844 555.324219 896.214844 556.484375 C 896.214844 557.640625 896.570312 558.59375 897.285156 559.347656 C 897.984375 560.082031 898.863281 560.449219 899.921875 560.449219 C 900.980469 560.449219 901.863281 560.082031 902.578125 559.347656 C 903.277344 558.59375 903.628906 557.640625 903.628906 556.484375 Z M 903.628906 556.484375 " fill-opacity="1" fill-rule="nonzero"/><path fill="#e7e8ff" d="M 671.535156 576.628906 C 671.535156 580.105469 668.714844 582.925781 665.238281 582.925781 C 661.761719 582.925781 658.945312 580.105469 658.945312 576.628906 C 658.945312 573.15625 661.761719 570.335938 665.238281 570.335938 C 668.714844 570.335938 671.535156 573.15625 671.535156 576.628906 Z M 671.535156 576.628906 " fill-opacity="1" fill-rule="nonzero"/><path fill="#e7e8ff" d="M 701.742188 576.628906 C 701.742188 580.105469 698.925781 582.925781 695.449219 582.925781 C 691.976562 582.925781 689.15625 580.105469 689.15625 576.628906 C 689.15625 573.15625 691.976562 570.335938 695.449219 570.335938 C 698.925781 570.335938 701.742188 573.15625 701.742188 576.628906 Z M 701.742188 576.628906 " fill-opacity="1" fill-rule="nonzero"/><path fill="#e7e8ff" d="M 731.953125 576.628906 C 731.953125 580.105469 729.136719 582.925781 725.660156 582.925781 C 722.183594 582.925781 719.367188 580.105469 719.367188 576.628906 C 719.367188 573.15625 722.183594 570.335938 725.660156 570.335938 C 729.136719 570.335938 731.953125 573.15625 731.953125 576.628906 Z M 731.953125 576.628906 " fill-opacity="1" fill-rule="nonzero"/><path fill="#e7e8ff" d="M 762.160156 576.628906 C 762.160156 580.105469 759.34375 582.925781 755.867188 582.925781 C 752.390625 582.925781 749.574219 580.105469 749.574219 576.628906 C 749.574219 573.15625 752.390625 570.335938 755.867188 570.335938 C 759.34375 570.335938 762.160156 573.15625 762.160156 576.628906 Z M 762.160156 576.628906 " fill-opacity="1" fill-rule="nonzero"/><path fill="#e7e8ff" d="M 792.371094 576.628906 C 792.371094 580.105469 789.554688 582.925781 786.078125 582.925781 C 782.601562 582.925781 779.785156 580.105469 779.785156 576.628906 C 779.785156 573.15625 782.601562 570.335938 786.078125 570.335938 C 789.554688 570.335938 792.371094 573.15625 792.371094 576.628906 Z M 792.371094 576.628906 " fill-opacity="1" fill-rule="nonzero"/><path fill="#e7e8ff" d="M 822.582031 576.628906 C 822.582031 580.105469 819.761719 582.925781 816.289062 582.925781 C 812.8125 582.925781 809.996094 580.105469 809.996094 576.628906 C 809.996094 573.15625 812.8125 570.335938 816.289062 570.335938 C 819.761719 570.335938 822.582031 573.15625 822.582031 576.628906 Z M 822.582031 576.628906 " fill-opacity="1" fill-rule="nonzero"/><path fill="#ffffff" d="M 487.332031 333.835938 C 452.285156 358.632812 467.011719 402.722656 473.617188 419.804688 L 470.722656 454.667969 C 473.71875 465.640625 484.589844 487.589844 504.09375 487.589844 C 523.597656 487.589844 532.535156 468.851562 534.566406 459.484375 L 531.519531 433.03125 C 554.378906 424.765625 555.902344 391.699219 554.378906 365.246094 C 552.570312 333.835938 518.199219 311.988281 487.332031 333.835938 Z M 487.332031 333.835938 " fill-opacity="1" fill-rule="nonzero"/><path fill="#032068" d="M 530.753906 331.464844 C 518.804688 325.1875 503.355469 325.117188 488.566406 335.582031 C 471.765625 347.46875 466.871094 363.929688 466.992188 379.695312 C 467.117188 395.546875 472.328125 410.539062 475.609375 419.035156 L 475.789062 419.492188 L 472.886719 454.460938 C 474.375 459.722656 477.691406 467.464844 482.882812 473.902344 C 488.183594 480.476562 495.226562 485.449219 504.089844 485.449219 C 513.066406 485.449219 519.621094 481.167969 524.246094 475.671875 C 528.789062 470.269531 531.386719 463.777344 532.398438 459.371094 L 529.199219 431.59375 L 530.792969 431.015625 C 541.242188 427.238281 547.039062 417.75 550.011719 405.457031 C 552.980469 393.167969 553 378.546875 552.242188 365.371094 C 551.378906 350.417969 542.773438 337.777344 530.753906 331.464844 Z M 468.589844 454.46875 L 471.441406 420.117188 C 468.109375 411.4375 462.839844 396.097656 462.714844 379.730469 C 462.582031 362.980469 467.84375 345 486.09375 332.085938 C 502.175781 320.707031 519.34375 320.632812 532.746094 327.671875 C 546.082031 334.675781 555.566406 348.660156 556.511719 365.121094 C 557.277344 378.398438 557.296875 393.535156 554.171875 406.460938 C 551.183594 418.820312 545.207031 429.582031 533.835938 434.421875 L 536.734375 459.589844 L 536.660156 459.941406 C 535.582031 464.898438 532.707031 472.261719 527.519531 478.429688 C 522.289062 484.644531 514.621094 489.730469 504.089844 489.730469 C 493.449219 489.730469 485.304688 483.730469 479.550781 476.589844 C 474.054688 469.769531 470.539062 461.691406 468.878906 456.003906 L 468.4375 455.960938 Z M 468.589844 454.46875 " fill-opacity="1" fill-rule="evenodd"/><path fill="#032068" d="M 474.71875 411.160156 L 471.679688 441.140625 C 470.667969 438.917969 468.339844 432.476562 467.125 424.484375 C 465.605469 414.492188 441.316406 376.1875 448.910156 347.878906 C 454.980469 325.226562 471.679688 326.226562 479.273438 329.558594 C 483.824219 321.230469 511.152344 292.917969 550.625 296.25 C 590.09375 299.582031 594.648438 356.203125 562.765625 364.53125 C 537.261719 371.191406 508.621094 367.304688 497.488281 364.53125 C 496.476562 366.75 493.539062 374.191406 489.898438 386.179688 C 485.34375 401.167969 485.34375 404.5 483.824219 394.507812 C 482.308594 384.515625 476.234375 366.195312 468.644531 384.515625 C 462.570312 399.171875 470.164062 408.386719 474.71875 411.160156 Z M 474.71875 411.160156 " fill-opacity="1" fill-rule="nonzero"/><path fill="#032068" d="M 496.765625 432.429688 C 507.210938 438.585938 523.363281 434.992188 530.132812 432.429688 L 531.585938 443.199219 C 516.496094 446.890625 502.082031 437.558594 496.765625 432.429688 Z M 496.765625 432.429688 " fill-opacity="1" fill-rule="nonzero"/><path fill="#ffffff" d="M 502.753906 469.101562 C 524.617188 469.101562 535.203125 456.925781 538.378906 449.65625 C 538.75 448.808594 539.554688 448.210938 540.476562 448.257812 C 552.539062 448.863281 569.65625 456.1875 573.945312 457.664062 C 574.058594 457.703125 574.160156 457.746094 574.265625 457.804688 C 607.984375 475.925781 639.964844 507.992188 660.003906 623.652344 C 666.496094 671.921875 678.09375 772.636719 672.527344 789.34375 C 666.960938 806.054688 628.460938 808.375 609.90625 807.445312 L 366.378906 807.445312 C 359.929688 807.445312 361.933594 797.269531 364.65625 789.554688 C 365.269531 787.820312 363.609375 785.902344 361.785156 786.160156 C 350.691406 787.703125 329.507812 785.695312 306.542969 768.460938 C 262.011719 732.257812 313.5 587.453125 346.898438 519.226562 C 373.140625 465.617188 435.542969 449.707031 465.003906 448.28125 C 465.953125 448.234375 466.769531 448.835938 467.152344 449.703125 C 470.355469 456.980469 480.941406 469.101562 502.753906 469.101562 Z M 502.753906 469.101562 " fill-opacity="1" fill-rule="nonzero"/><path fill="#032068" d="M 540.394531 450.425781 C 540.375 450.449219 540.355469 450.476562 540.339844 450.511719 C 536.851562 458.5 525.535156 471.242188 502.753906 471.242188 C 480.023438 471.242188 468.707031 458.554688 465.191406 450.5625 C 465.15625 450.480469 465.109375 450.4375 465.085938 450.417969 C 450.609375 451.125 427.941406 455.402344 405.671875 466.117188 C 383.40625 476.828125 361.671875 493.914062 348.820312 520.167969 C 332.171875 554.175781 311.015625 607.277344 299.582031 656.339844 C 293.863281 680.878906 290.601562 704.285156 291.503906 723.738281 C 292.40625 743.242188 297.460938 758.296875 307.859375 766.769531 C 330.359375 783.640625 350.960938 785.503906 361.492188 784.035156 C 363.246094 783.792969 364.804688 784.601562 365.761719 785.71875 C 366.71875 786.84375 367.28125 788.539062 366.671875 790.265625 C 365.332031 794.066406 364.25 798.269531 364.21875 801.414062 C 364.199219 803.003906 364.460938 804.03125 364.816406 804.59375 C 365.066406 804.992188 365.433594 805.304688 366.378906 805.304688 L 610.011719 805.304688 C 619.171875 805.765625 633.25 805.417969 645.664062 802.910156 C 651.875 801.65625 657.558594 799.882812 661.976562 797.472656 C 666.410156 795.054688 669.34375 792.128906 670.496094 788.667969 C 671.089844 786.882812 671.511719 783.742188 671.714844 779.308594 C 671.914062 774.941406 671.894531 769.507812 671.691406 763.261719 C 671.289062 750.777344 670.160156 735.160156 668.65625 718.527344 C 665.644531 685.285156 661.132812 648.09375 657.886719 623.980469 C 647.890625 566.300781 634.949219 529.664062 620.425781 505.246094 C 605.945312 480.898438 589.835938 468.601562 573.253906 459.6875 C 573.25 459.6875 573.246094 459.6875 573.25 459.6875 C 572.496094 459.429688 571.363281 458.996094 569.980469 458.46875 C 569.320312 458.21875 568.605469 457.945312 567.847656 457.660156 C 565.460938 456.761719 562.574219 455.699219 559.453125 454.667969 C 553.179688 452.589844 546.136719 450.695312 540.417969 450.398438 C 540.410156 450.40625 540.402344 450.414062 540.394531 450.425781 Z M 536.417969 448.796875 C 537.074219 447.296875 538.609375 446.019531 540.582031 446.117188 C 546.914062 446.4375 554.441406 448.5 560.796875 450.601562 C 563.996094 451.660156 566.949219 452.746094 569.355469 453.652344 C 570.183594 453.964844 570.9375 454.25 571.609375 454.507812 C 572.933594 455.011719 573.953125 455.402344 574.640625 455.636719 C 574.863281 455.714844 575.070312 455.804688 575.277344 455.917969 C 592.417969 465.128906 609.15625 477.925781 624.101562 503.058594 C 639.003906 528.109375 652.066406 565.328125 662.109375 623.289062 L 662.117188 623.328125 L 662.121094 623.367188 C 665.371094 647.523438 669.898438 684.800781 672.917969 718.140625 C 674.425781 734.808594 675.5625 750.519531 675.96875 763.125 C 676.175781 769.425781 676.195312 774.980469 675.992188 779.507812 C 675.785156 783.96875 675.351562 787.628906 674.554688 790.019531 C 672.925781 794.914062 668.957031 798.542969 664.027344 801.230469 C 659.082031 803.929688 652.9375 805.808594 646.507812 807.109375 C 633.667969 809.699219 619.246094 810.050781 609.851562 809.585938 L 366.378906 809.585938 C 364.097656 809.585938 362.296875 808.625 361.195312 806.875 C 360.195312 805.292969 359.917969 803.289062 359.9375 801.371094 C 359.976562 797.5 361.253906 792.757812 362.636719 788.839844 C 362.640625 788.832031 362.679688 788.703125 362.503906 788.5 C 362.328125 788.292969 362.148438 788.269531 362.082031 788.28125 C 350.429688 789.902344 328.675781 787.746094 305.257812 770.171875 L 305.226562 770.148438 L 305.191406 770.121094 C 293.347656 760.492188 288.148438 743.878906 287.226562 723.9375 C 286.300781 703.925781 289.652344 680.082031 295.414062 655.367188 C 306.9375 605.917969 328.226562 552.503906 344.976562 518.285156 C 358.367188 490.929688 380.953125 473.257812 403.816406 462.257812 C 426.664062 451.261719 449.914062 446.871094 464.898438 446.140625 C 466.878906 446.046875 468.433594 447.304688 469.109375 448.839844 C 472 455.40625 481.855469 466.960938 502.753906 466.960938 C 523.695312 466.960938 533.550781 455.355469 536.417969 448.796875 Z M 536.417969 448.796875 " fill-opacity="1" fill-rule="evenodd"/><path fill="#032068" d="M 356.679688 783.582031 C 341.371094 751.035156 308.941406 718.859375 291.609375 704.234375 C 290.289062 703.117188 288.308594 703.992188 288.257812 705.722656 C 287.835938 720.683594 289.84375 748.082031 300.976562 764.28125 C 312.339844 780.820312 339.757812 785.847656 354.769531 786.488281 C 356.308594 786.554688 357.335938 784.976562 356.679688 783.582031 Z M 356.679688 783.582031 " fill-opacity="1" fill-rule="nonzero"/><path fill="#032068" d="M 498.578125 700.234375 C 435.121094 764.839844 382.148438 785.632812 363.59375 787.953125 L 360.8125 800.484375 C 415.363281 791.570312 475.386719 729.9375 498.578125 700.234375 Z M 498.578125 700.234375 " fill-opacity="1" fill-rule="nonzero"/><path fill="#ffffff" d="M 513.886719 679.449219 L 513.886719 585.089844 C 513.886719 584.042969 514.640625 583.148438 515.671875 582.976562 L 561.453125 575.34375 C 562.769531 575.125 563.964844 576.152344 563.945312 577.488281 L 562.617188 669.3125 C 562.601562 670.300781 561.914062 671.148438 560.953125 671.367188 L 516.503906 681.535156 C 515.164062 681.839844 513.886719 680.824219 513.886719 679.449219 Z M 513.886719 679.449219 " fill-opacity="1" fill-rule="nonzero"/><path fill="#032068" d="M 561.101562 573.230469 C 563.734375 572.792969 566.121094 574.84375 566.082031 577.515625 L 564.753906 669.34375 C 564.726562 671.316406 563.351562 673.015625 561.425781 673.457031 L 516.976562 683.621094 C 514.296875 684.234375 511.742188 682.199219 511.742188 679.449219 L 511.742188 585.089844 C 511.742188 582.996094 513.257812 581.210938 515.320312 580.867188 Z M 561.804688 577.457031 L 516.023438 585.089844 L 515.671875 582.976562 L 516.023438 585.089844 L 516.023438 679.449219 L 560.472656 669.28125 Z M 561.804688 577.457031 " fill-opacity="1" fill-rule="evenodd"/><path fill="#032068" d="M 394.207031 651.5 C 391.980469 655.957031 368.234375 667.28125 356.636719 672.386719 C 368.882812 669.046875 440.59375 644.074219 474.921875 632.007812 C 465.179688 632.007812 408.125 648.714844 406.734375 645.929688 C 405.621094 643.703125 409.980469 615.300781 412.300781 601.378906 C 407.195312 616.226562 396.433594 647.046875 394.207031 651.5 Z M 394.207031 651.5 " fill-opacity="1" fill-rule="nonzero"/><path fill="#ffffff" d="M 495.796875 626.4375 C 490.230469 635.351562 484.199219 639.433594 481.882812 640.363281 L 491.621094 672.386719 C 504.148438 665.425781 525.019531 666.816406 540.328125 658.460938 C 555.632812 650.109375 552.851562 609.730469 544.503906 612.515625 C 537.824219 614.742188 521.308594 621.796875 513.886719 625.046875 L 513.886719 605.550781 C 504.148438 609.730469 502.753906 615.300781 495.796875 626.4375 Z M 495.796875 626.4375 " fill-opacity="1" fill-rule="nonzero"/><path fill="#032068" d="M 516.027344 602.308594 L 516.027344 621.78125 C 524.234375 618.226562 537.839844 612.480469 543.824219 610.484375 C 545.828125 609.816406 547.601562 610.5625 548.867188 611.839844 C 550.046875 613.03125 550.910156 614.765625 551.550781 616.65625 C 552.851562 620.488281 553.515625 625.796875 553.425781 631.347656 C 553.335938 636.914062 552.484375 642.898438 550.625 648.089844 C 548.78125 653.242188 545.835938 657.898438 541.351562 660.34375 C 533.347656 664.710938 523.960938 666.496094 515.308594 668.054688 C 514.996094 668.113281 514.679688 668.167969 514.367188 668.222656 C 505.910156 669.746094 498.332031 671.105469 492.660156 674.257812 L 490.347656 675.546875 L 479.261719 639.105469 L 481.085938 638.375 C 482.882812 637.65625 488.59375 633.929688 493.980469 625.304688 C 495.371094 623.082031 496.53125 621.09375 497.59375 619.261719 C 497.847656 618.828125 498.097656 618.398438 498.34375 617.980469 C 499.601562 615.828125 500.785156 613.871094 502.074219 612.113281 C 504.730469 608.507812 507.816406 605.828125 513.042969 603.585938 Z M 501.304688 621.398438 C 500.238281 623.230469 499.039062 625.289062 497.609375 627.574219 C 492.863281 635.171875 487.699219 639.527344 484.449219 641.453125 L 492.929688 669.335938 C 498.867188 666.652344 506.101562 665.355469 513.273438 664.070312 C 513.699219 663.992188 514.125 663.917969 514.550781 663.839844 C 523.292969 662.265625 532 660.570312 539.300781 656.582031 C 542.472656 654.851562 544.917969 651.328125 546.597656 646.644531 C 548.261719 642.003906 549.0625 636.503906 549.144531 631.277344 C 549.230469 626.035156 548.589844 621.25 547.496094 618.035156 C 546.945312 616.398438 546.339844 615.371094 545.828125 614.855469 C 545.429688 614.453125 545.28125 614.507812 545.195312 614.542969 C 545.1875 614.542969 545.183594 614.542969 545.179688 614.546875 C 538.609375 616.738281 522.199219 623.746094 514.746094 627.007812 L 511.746094 628.320312 L 511.746094 609.003906 C 509.015625 610.582031 507.191406 612.386719 505.523438 614.65625 C 504.375 616.210938 503.296875 617.992188 502.035156 620.144531 C 501.796875 620.550781 501.554688 620.96875 501.304688 621.398438 Z M 501.304688 621.398438 " fill-opacity="1" fill-rule="evenodd"/><path fill="#ffffff" d="M 583.761719 452.890625 C 572.902344 452.890625 546.363281 478.238281 546.363281 490.304688 C 543.949219 499.960938 607.882812 637.5625 654.929688 662.910156 C 701.980469 688.257812 740.582031 656.875 736.964844 608.59375 C 733.164062 557.898438 596.351562 452.890625 583.761719 452.890625 Z M 583.761719 452.890625 " fill-opacity="1" fill-rule="nonzero"/><path fill="#032068" d="M 552.472656 480.539062 C 549.863281 484.539062 548.503906 487.941406 548.503906 490.304688 L 548.503906 490.570312 L 548.441406 490.820312 C 548.441406 490.816406 548.441406 490.816406 548.445312 490.816406 C 548.445312 490.816406 548.421875 490.972656 548.460938 491.375 C 548.5 491.800781 548.59375 492.367188 548.757812 493.089844 C 549.078125 494.527344 549.640625 496.433594 550.433594 498.765625 C 552.015625 503.425781 554.476562 509.632812 557.65625 516.929688 C 564.015625 531.515625 573.222656 550.351562 583.972656 569.683594 C 594.722656 589.019531 606.996094 608.804688 619.488281 625.3125 C 632.027344 641.882812 644.613281 654.917969 655.949219 661.023438 C 678.90625 673.390625 699.421875 671.765625 713.710938 661.617188 C 728.054688 651.425781 736.597656 632.3125 734.832031 608.753906 C 734.386719 602.835938 731.980469 595.949219 727.921875 588.359375 C 723.875 580.789062 718.253906 572.636719 711.523438 564.214844 C 698.070312 547.367188 680.3125 529.578125 662.234375 513.324219 C 644.160156 497.078125 625.816406 482.414062 611.222656 471.820312 C 603.921875 466.523438 597.585938 462.261719 592.707031 459.335938 C 590.261719 457.871094 588.21875 456.761719 586.621094 456.027344 C 585.820312 455.65625 585.167969 455.398438 584.648438 455.234375 C 584.105469 455.058594 583.832031 455.03125 583.761719 455.03125 C 581.703125 455.03125 578.460938 456.308594 574.488281 458.84375 C 570.625 461.3125 566.40625 464.757812 562.488281 468.601562 C 558.578125 472.441406 555.027344 476.625 552.472656 480.539062 Z M 572.1875 455.234375 C 576.25 452.640625 580.390625 450.75 583.761719 450.75 C 584.480469 450.75 585.234375 450.925781 585.949219 451.152344 C 586.6875 451.386719 587.515625 451.722656 588.414062 452.136719 C 590.203125 452.964844 592.394531 454.160156 594.90625 455.664062 C 599.933594 458.679688 606.378906 463.015625 613.734375 468.355469 C 628.453125 479.039062 646.914062 493.796875 665.09375 510.140625 C 683.265625 526.476562 701.210938 544.441406 714.867188 561.542969 C 721.695312 570.09375 727.484375 578.464844 731.695312 586.339844 C 735.894531 594.191406 738.59375 601.679688 739.101562 608.433594 C 740.953125 633.15625 732.003906 653.875 716.191406 665.105469 C 700.316406 676.382812 678.007812 677.773438 653.921875 664.792969 C 641.730469 658.226562 628.683594 644.558594 616.078125 627.898438 C 603.421875 611.175781 591.042969 591.203125 580.230469 571.765625 C 569.417969 552.320312 560.152344 533.363281 553.734375 518.640625 C 550.527344 511.285156 548.015625 504.960938 546.378906 500.144531 C 545.566406 497.742188 544.953125 495.675781 544.582031 494.027344 C 544.394531 493.203125 544.261719 492.449219 544.199219 491.78125 C 544.148438 491.25 544.128906 490.652344 544.226562 490.082031 C 544.304688 486.460938 546.238281 482.261719 548.890625 478.199219 C 551.648438 473.964844 555.414062 469.546875 559.492188 465.542969 C 563.570312 461.539062 568.019531 457.894531 572.1875 455.234375 Z M 572.1875 455.234375 " fill-opacity="1" fill-rule="evenodd"/><path fill="#032068" d="M 736.964844 604.972656 C 692.570312 615.59375 673.429688 652.046875 669.410156 668.945312 C 679.863281 671.761719 699.566406 681.015625 722.488281 658.082031 C 738.921875 641.636719 739.378906 616.238281 736.964844 604.972656 Z M 736.964844 604.972656 " fill-opacity="1" fill-rule="nonzero"/><path fill="#032068" d="M 601.851562 603.765625 C 630.804688 652.046875 656.539062 666.53125 665.785156 667.738281 L 668.199219 683.429688 C 660.960938 682.222656 643.589844 671.359375 617.535156 637.5625 C 580.859375 591.214844 553.597656 520.078125 546.359375 490.308594 C 552.394531 510.824219 565.664062 543.417969 601.851562 603.765625 Z M 601.851562 603.765625 " fill-opacity="1" fill-rule="nonzero"/><path fill="#ffffff" d="M 548.773438 416.875 C 550.464844 419.453125 566.210938 445.164062 572.902344 457.695312 C 566.5625 464.140625 553.253906 477.03125 550.71875 477.03125 C 547.550781 477.03125 529.597656 471.660156 522.203125 461.992188 C 514.808594 452.324219 526.425781 440.507812 526.425781 439.433594 C 526.425781 438.359375 507.414062 429.765625 504.246094 425.46875 C 501.078125 421.171875 505.347656 416.679688 510.171875 417.886719 C 512.925781 417.886719 530.679688 427.542969 536.710938 429.957031 C 539.246094 429.097656 542.742188 426.335938 548.773438 416.875 Z M 548.773438 416.875 " fill-opacity="1" fill-rule="nonzero"/><path fill="#032068" d="M 548.753906 412.933594 L 550.566406 415.703125 C 552.285156 418.324219 568.066406 444.085938 574.789062 456.6875 L 575.535156 458.074219 L 574.429688 459.195312 C 571.242188 462.4375 566.300781 467.300781 561.824219 471.367188 C 559.59375 473.394531 557.441406 475.25 555.667969 476.613281 C 554.789062 477.289062 553.957031 477.878906 553.230469 478.308594 C 552.867188 478.523438 552.492188 478.71875 552.121094 478.867188 C 551.78125 479.007812 551.28125 479.171875 550.722656 479.171875 C 549.589844 479.171875 547.609375 478.746094 545.371094 478.09375 C 543.039062 477.414062 540.179688 476.410156 537.1875 475.097656 C 531.277344 472.5 524.535156 468.5625 520.503906 463.292969 C 516.089844 457.519531 517.488281 451.175781 519.601562 446.59375 C 520.667969 444.28125 521.96875 442.28125 522.96875 440.835938 C 523.207031 440.492188 523.40625 440.210938 523.578125 439.964844 C 523.230469 439.761719 522.824219 439.527344 522.367188 439.273438 C 521.332031 438.695312 520.113281 438.039062 518.777344 437.316406 C 517.746094 436.761719 516.644531 436.164062 515.5 435.539062 C 512.917969 434.125 510.191406 432.585938 507.898438 431.117188 C 506.75 430.382812 505.6875 429.648438 504.789062 428.941406 C 503.914062 428.253906 503.09375 427.507812 502.527344 426.742188 C 500.359375 423.804688 500.660156 420.507812 502.578125 418.234375 C 504.367188 416.117188 507.390625 415.0625 510.484375 415.761719 C 511.171875 415.820312 511.9375 416.0625 512.570312 416.289062 C 513.40625 416.582031 514.402344 416.992188 515.496094 417.472656 C 517.6875 418.433594 520.386719 419.734375 523.15625 421.09375 C 524.382812 421.695312 525.621094 422.304688 526.832031 422.90625 C 530.710938 424.824219 534.359375 426.625 536.71875 427.640625 C 538.585938 426.710938 541.667969 424.042969 546.972656 415.722656 Z M 524.804688 440.757812 C 524.808594 440.761719 524.808594 440.757812 524.800781 440.753906 C 524.800781 440.757812 524.800781 440.757812 524.804688 440.757812 Z M 505.847656 420.996094 C 505.21875 421.738281 504.96875 422.839844 505.96875 424.199219 C 506.195312 424.503906 506.664062 424.96875 507.433594 425.578125 C 508.183594 426.167969 509.125 426.816406 510.207031 427.507812 C 512.367188 428.894531 514.988281 430.378906 517.554688 431.78125 C 518.636719 432.375 519.726562 432.960938 520.757812 433.519531 C 522.128906 434.261719 523.40625 434.949219 524.453125 435.53125 C 525.375 436.050781 526.1875 436.519531 526.78125 436.914062 C 527.074219 437.105469 527.375 437.316406 527.625 437.539062 C 527.75 437.644531 527.921875 437.808594 528.085938 438.023438 C 528.195312 438.171875 528.570312 438.683594 528.570312 439.433594 C 528.570312 439.882812 528.433594 440.230469 528.382812 440.363281 C 528.3125 440.539062 528.230469 440.695312 528.164062 440.808594 C 528.035156 441.042969 527.871094 441.289062 527.710938 441.523438 C 527.566406 441.734375 527.363281 442.027344 527.136719 442.34375 C 526.925781 442.648438 526.695312 442.972656 526.492188 443.269531 C 525.542969 444.640625 524.402344 446.402344 523.488281 448.386719 C 521.636719 452.398438 520.925781 456.796875 523.902344 460.691406 C 527.265625 465.085938 533.199219 468.667969 538.90625 471.175781 C 541.726562 472.414062 544.410156 473.355469 546.570312 473.984375 C 548.597656 474.574219 549.976562 474.835938 550.558594 474.878906 C 550.667969 474.832031 550.832031 474.753906 551.058594 474.617188 C 551.566406 474.316406 552.242188 473.847656 553.0625 473.21875 C 554.695312 471.960938 556.746094 470.191406 558.949219 468.191406 C 562.859375 464.644531 567.148438 460.453125 570.269531 457.316406 C 564.402344 446.542969 553.1875 428.039062 548.734375 420.835938 C 543.730469 428.195312 540.351562 430.984375 537.398438 431.984375 L 536.652344 432.238281 L 535.917969 431.945312 C 533.464844 430.964844 529.179688 428.84375 524.804688 426.679688 C 523.621094 426.09375 522.433594 425.507812 521.273438 424.9375 C 518.507812 423.582031 515.875 422.316406 513.773438 421.394531 C 512.722656 420.929688 511.832031 420.566406 511.144531 420.324219 C 510.585938 420.128906 510.296875 420.0625 510.199219 420.039062 C 510.160156 420.027344 510.152344 420.027344 510.175781 420.027344 L 509.910156 420.027344 L 509.652344 419.964844 C 507.996094 419.546875 506.570312 420.140625 505.847656 420.996094 Z M 550.457031 474.921875 C 550.457031 474.921875 550.464844 474.917969 550.472656 474.917969 C 550.460938 474.917969 550.457031 474.921875 550.457031 474.921875 Z M 550.457031 474.921875 " fill-opacity="1" fill-rule="evenodd"/><path fill="#032068" d="M 502.933594 423.921875 C 503.898438 430.679688 512.988281 436.394531 517.410156 438.40625 L 521.03125 435.992188 C 519.421875 435.1875 514.996094 432.851562 510.175781 429.957031 C 505.347656 427.058594 503.335938 424.726562 502.933594 423.921875 Z M 502.933594 423.921875 " fill-opacity="1" fill-rule="nonzero"/><path fill="#032068" d="M 519.820312 466.167969 C 511.136719 457.476562 515.398438 447.257812 518.617188 443.234375 L 524.644531 442.027344 C 517.410156 454.097656 521.832031 462.144531 524.644531 463.753906 Z M 519.820312 466.167969 " fill-opacity="1" fill-rule="nonzero"/></svg>